Casino_Street_Zone_Act_1_norm_Header:
	smpsHeaderStartSong 1
	smpsHeaderVoice     Casino_Street_Zone_Act_1_norm_Voices
	smpsHeaderChan      $06, $03
	smpsHeaderTempo     $02, $03

	smpsHeaderDAC       Casino_Street_Zone_Act_1_norm_DAC
	smpsHeaderFM        Casino_Street_Zone_Act_1_norm_FM1,	$00, $00
	smpsHeaderFM        Casino_Street_Zone_Act_1_norm_FM2,	$00, $00
	smpsHeaderFM        Casino_Street_Zone_Act_1_norm_FM3,	$00, $00
	smpsHeaderFM        Casino_Street_Zone_Act_1_norm_FM4,	$00, $00
	smpsHeaderFM        Casino_Street_Zone_Act_1_norm_FM5,	$00, $00
	smpsHeaderPSG       Casino_Street_Zone_Act_1_norm_PSG1,	$DC, $04, $00, $00
	smpsHeaderPSG       Casino_Street_Zone_Act_1_norm_PSG2,	$DC, $04, $00, $00
	smpsHeaderPSG       Casino_Street_Zone_Act_1_norm_PSG3,	$D0, $02, $00, $00

; FM1 Data
Casino_Street_Zone_Act_1_norm_FM1:
	smpsCall            Casino_Street_Zone_Act_1_norm_Call2B

Casino_Street_Zone_Act_1_norm_Jump05:
	smpsCall            Casino_Street_Zone_Act_1_norm_Call2C
	smpsCall            Casino_Street_Zone_Act_1_norm_Call2D
	smpsCall            Casino_Street_Zone_Act_1_norm_Call2E
	smpsCall            Casino_Street_Zone_Act_1_norm_Call2F
	smpsCall            Casino_Street_Zone_Act_1_norm_Call2C
	smpsCall            Casino_Street_Zone_Act_1_norm_Call2D
	smpsCall            Casino_Street_Zone_Act_1_norm_Call2E
	smpsCall            Casino_Street_Zone_Act_1_norm_Call30
	smpsCall            Casino_Street_Zone_Act_1_norm_Call31
	smpsJump            Casino_Street_Zone_Act_1_norm_Jump05

; FM2 Data
Casino_Street_Zone_Act_1_norm_FM2:
	smpsCall            Casino_Street_Zone_Act_1_norm_Call21

Casino_Street_Zone_Act_1_norm_Jump04:
	smpsCall            Casino_Street_Zone_Act_1_norm_Call22
	smpsCall            Casino_Street_Zone_Act_1_norm_Call23
	smpsCall            Casino_Street_Zone_Act_1_norm_Call24
	smpsCall            Casino_Street_Zone_Act_1_norm_Call25
	smpsCall            Casino_Street_Zone_Act_1_norm_Call26
	smpsCall            Casino_Street_Zone_Act_1_norm_Call27
	smpsCall            Casino_Street_Zone_Act_1_norm_Call28
	smpsCall            Casino_Street_Zone_Act_1_norm_Call29
	smpsCall            Casino_Street_Zone_Act_1_norm_Call2A
	smpsJump            Casino_Street_Zone_Act_1_norm_Jump04

; FM3 Data
Casino_Street_Zone_Act_1_norm_FM3:
	smpsCall            Casino_Street_Zone_Act_1_norm_Call17

Casino_Street_Zone_Act_1_norm_Jump03:
	smpsCall            Casino_Street_Zone_Act_1_norm_Call18
	smpsCall            Casino_Street_Zone_Act_1_norm_Call19
	smpsCall            Casino_Street_Zone_Act_1_norm_Call1A
	smpsCall            Casino_Street_Zone_Act_1_norm_Call1B
	smpsCall            Casino_Street_Zone_Act_1_norm_Call1C
	smpsCall            Casino_Street_Zone_Act_1_norm_Call1D
	smpsCall            Casino_Street_Zone_Act_1_norm_Call1E
	smpsCall            Casino_Street_Zone_Act_1_norm_Call1F
	smpsCall            Casino_Street_Zone_Act_1_norm_Call20
	smpsJump            Casino_Street_Zone_Act_1_norm_Jump03

; FM4 Data
Casino_Street_Zone_Act_1_norm_FM4:
	smpsCall            Casino_Street_Zone_Act_1_norm_Call0E

Casino_Street_Zone_Act_1_norm_Jump02:
	smpsCall            Casino_Street_Zone_Act_1_norm_Call0F
	smpsCall            Casino_Street_Zone_Act_1_norm_Call10
	smpsCall            Casino_Street_Zone_Act_1_norm_Call11
	smpsCall            Casino_Street_Zone_Act_1_norm_Call12
	smpsCall            Casino_Street_Zone_Act_1_norm_Call0F
	smpsCall            Casino_Street_Zone_Act_1_norm_Call13
	smpsCall            Casino_Street_Zone_Act_1_norm_Call14
	smpsCall            Casino_Street_Zone_Act_1_norm_Call15
	smpsCall            Casino_Street_Zone_Act_1_norm_Call16
	smpsJump            Casino_Street_Zone_Act_1_norm_Jump02

; FM5 Data
Casino_Street_Zone_Act_1_norm_FM5:
	smpsCall            Casino_Street_Zone_Act_1_norm_Call05

Casino_Street_Zone_Act_1_norm_Jump01:
	smpsCall            Casino_Street_Zone_Act_1_norm_Call06
	smpsCall            Casino_Street_Zone_Act_1_norm_Call07
	smpsCall            Casino_Street_Zone_Act_1_norm_Call08
	smpsCall            Casino_Street_Zone_Act_1_norm_Call09
	smpsCall            Casino_Street_Zone_Act_1_norm_Call06
	smpsCall            Casino_Street_Zone_Act_1_norm_Call0A
	smpsCall            Casino_Street_Zone_Act_1_norm_Call0B
	smpsCall            Casino_Street_Zone_Act_1_norm_Call0C
	smpsCall            Casino_Street_Zone_Act_1_norm_Call0D
	smpsJump            Casino_Street_Zone_Act_1_norm_Jump01

; PSG1 Data
Casino_Street_Zone_Act_1_norm_PSG1:
	smpsCall            Casino_Street_Zone_Act_1_norm_Call3C

Casino_Street_Zone_Act_1_norm_Jump08:
	smpsCall            Casino_Street_Zone_Act_1_norm_Call3C
	smpsCall            Casino_Street_Zone_Act_1_norm_Call3D
	smpsCall            Casino_Street_Zone_Act_1_norm_Call3C
	smpsCall            Casino_Street_Zone_Act_1_norm_Call3C
	smpsCall            Casino_Street_Zone_Act_1_norm_Call3C
	smpsCall            Casino_Street_Zone_Act_1_norm_Call3D
	smpsCall            Casino_Street_Zone_Act_1_norm_Call3C
	smpsCall            Casino_Street_Zone_Act_1_norm_Call3C
	smpsCall            Casino_Street_Zone_Act_1_norm_Call3E
	smpsJump            Casino_Street_Zone_Act_1_norm_Jump08

; PSG2 Data
Casino_Street_Zone_Act_1_norm_PSG2:
	smpsCall            Casino_Street_Zone_Act_1_norm_Call39

Casino_Street_Zone_Act_1_norm_Jump07:
	smpsCall            Casino_Street_Zone_Act_1_norm_Call39
	smpsCall            Casino_Street_Zone_Act_1_norm_Call3A
	smpsCall            Casino_Street_Zone_Act_1_norm_Call39
	smpsCall            Casino_Street_Zone_Act_1_norm_Call39
	smpsCall            Casino_Street_Zone_Act_1_norm_Call39
	smpsCall            Casino_Street_Zone_Act_1_norm_Call3A
	smpsCall            Casino_Street_Zone_Act_1_norm_Call39
	smpsCall            Casino_Street_Zone_Act_1_norm_Call39
	smpsCall            Casino_Street_Zone_Act_1_norm_Call3B
	smpsJump            Casino_Street_Zone_Act_1_norm_Jump07

; PSG3 Data
Casino_Street_Zone_Act_1_norm_PSG3:
	smpsPSGform         $E7
	smpsCall            Casino_Street_Zone_Act_1_norm_Call32

Casino_Street_Zone_Act_1_norm_Jump06:
	smpsCall            Casino_Street_Zone_Act_1_norm_Call33
	smpsCall            Casino_Street_Zone_Act_1_norm_Call34
	smpsCall            Casino_Street_Zone_Act_1_norm_Call35
	smpsCall            Casino_Street_Zone_Act_1_norm_Call36
	smpsCall            Casino_Street_Zone_Act_1_norm_Call33
	smpsCall            Casino_Street_Zone_Act_1_norm_Call34
	smpsCall            Casino_Street_Zone_Act_1_norm_Call35
	smpsCall            Casino_Street_Zone_Act_1_norm_Call37
	smpsCall            Casino_Street_Zone_Act_1_norm_Call38
	smpsJump            Casino_Street_Zone_Act_1_norm_Jump06

; DAC Data
Casino_Street_Zone_Act_1_norm_DAC:
	smpsCall            Casino_Street_Zone_Act_1_norm_Call00

Casino_Street_Zone_Act_1_norm_Jump00:
	smpsCall            Casino_Street_Zone_Act_1_norm_Call01
	smpsCall            Casino_Street_Zone_Act_1_norm_Call02
	smpsCall            Casino_Street_Zone_Act_1_norm_Call01
	smpsCall            Casino_Street_Zone_Act_1_norm_Call02
	smpsCall            Casino_Street_Zone_Act_1_norm_Call01
	smpsCall            Casino_Street_Zone_Act_1_norm_Call02
	smpsCall            Casino_Street_Zone_Act_1_norm_Call01
	smpsCall            Casino_Street_Zone_Act_1_norm_Call03
	smpsCall            Casino_Street_Zone_Act_1_norm_Call04
	smpsJump            Casino_Street_Zone_Act_1_norm_Jump00

Casino_Street_Zone_Act_1_norm_Call2B:
	dc.b	smpsNoAttack, $0D
	smpsSetvoice        $00
	dc.b	nE3, $03, nD3, $05, nC3, $03, nB2, $05, nG2, $03, nC3, $0D
	dc.b	$03, nG2, $0D, $03, nE2, $0D, $03, nB2, $0D, $03, nA2, $0D
	dc.b	$03, nC3, $0D, $03
	smpsReturn

Casino_Street_Zone_Act_1_norm_Call2C:
	dc.b	nA2, $05, $03, $05, nB2, $08, $03, nG2, $08, nC3, $0D, $03
	dc.b	nG2, $0D, $03, nE2, $0D, $03, nB2, $0D, $03, nA2, $0D, $03
	dc.b	nC3, $0D, $03
	smpsReturn

Casino_Street_Zone_Act_1_norm_Call2D:
	dc.b	nA2, $05, $03, $05, nB2, $03, nRst, $05, nB2, $03, nG2, $08
	dc.b	nA2, nA2, nB2, nC3, nE3, nD3, nE3, nG3, nF3, nA2, nC3, nD3
	smpsReturn

Casino_Street_Zone_Act_1_norm_Call2E:
	dc.b	nE3, $08, nC3, nA2, nC3, nD3, nD3, nC3, nC3, nB2, nB2, nA2
	dc.b	nD3, nG3, $05, nG2, $08, $03, nF3, $05, nG2, $08, $03
	smpsReturn

Casino_Street_Zone_Act_1_norm_Call2F:
	dc.b	nE3, $05, nG2, $08, $03, nD3, $05, nE3, $03, nD3, $08, nC3
	dc.b	$0D, $03, nG2, $0D, $03, nE2, $0D, $03, nB2, $0D, $03, nA2
	dc.b	$0D, $03, nC3, $0D, $03
	smpsReturn

Casino_Street_Zone_Act_1_norm_Call30:
	dc.b	nE3, $05, nG2, $08, $03, nD3, $05, nE3, $03, nD3, $08, nRst
	dc.b	$0D, nE3, $03, nD3, $05, nC3, $03, nB2, $05, nG2, $03, nC3
	dc.b	$0D, $03, nG2, $0D, $03, nE2, $0D, $03, nB2, $0D, $03
	smpsReturn

Casino_Street_Zone_Act_1_norm_Call31:
	dc.b	nA2, $0D, $03, nC3, $0D, $03
	smpsReturn

Casino_Street_Zone_Act_1_norm_Call21:
	dc.b	smpsNoAttack, $20
	smpsSetvoice        $02
	dc.b	nC4, $05, $03, nE4, $05, nF4, $03, nG4, $08, nC5, nB4, $0D
	dc.b	nG4, $0B, nE4, $08, nA4, $0D, nE4, $13
	smpsReturn

Casino_Street_Zone_Act_1_norm_Call22:
	dc.b	smpsNoAttack, $14, nRst, $0C, nC4, $05, $03, nE4, $05, nF4, $03, nG4
	dc.b	$08, nC5, nB4, $0D, nG4, $0B, nE4, $08, nA4, $0D, nE5, $13
	smpsReturn

Casino_Street_Zone_Act_1_norm_Call23:
	dc.b	smpsNoAttack, $10, nRst, $08, nC5, $05, nD5, $03, nE5, $04, nRst, nE5
	dc.b	$08, nD5, $04, nRst, nC5, $08, nB4, $14, nRst, $04, nE4, $08
	dc.b	nA4, $04, nRst, nA4, $08, nG4, $04, nRst, nF4, $08
	smpsReturn

Casino_Street_Zone_Act_1_norm_Call24:
	dc.b	nG4, $10, nE4, $04, nRst, nC4, $08, nD4, $04, nRst, nE4, $08
	dc.b	nD4, $04, nRst, nE4, $08, nD4, nE4, $05, nFs4, $03, nRst, $05
	dc.b	nFs4, $03, nA4, $08, nG4, $20
	smpsReturn

Casino_Street_Zone_Act_1_norm_Call25:
	dc.b	smpsNoAttack, $14, nRst, $0C, nC4, $05, $03, nE4, $02, nF4, $03, nFs4
	dc.b	nG4, $08, nC5, nB4, $05, nC5, $03, nB4, $05, nG4, $03, nRst
	dc.b	$05, nG4, $03, nE4, $08, nA4, $05, nAb4, $03, nA4, $05, nE4
	dc.b	$13
	smpsReturn

Casino_Street_Zone_Act_1_norm_Call26:
	dc.b	smpsNoAttack, $14, nRst, $0C, nC4, $05, $03, nE4, $02, nF4, $03, nFs4
	dc.b	nG4, $08, nC5, nB4, $05, nC5, $03, nB4, $05, nG4, $03, nRst
	dc.b	$05, nG4, $03, nE4, $08, nA4, $05, nAb4, $03, nA4, $05, nE5
	dc.b	$13
	smpsReturn

Casino_Street_Zone_Act_1_norm_Call27:
	dc.b	smpsNoAttack, $10, nRst, $05, nB4, $03, nC5, $05, nD5, $03, nE5, $05
	dc.b	nF5, $03, nE5, $08, nD5, $04, nRst, nC5, $08, nB4, $05, nBb4
	dc.b	$03, nB4, $05, nE4, $0B, nG4, $08, nA4, $05, nG4, $03, nA4
	dc.b	$08, nG4, $04, nRst, nF4, $08
	smpsReturn

Casino_Street_Zone_Act_1_norm_Call28:
	dc.b	nG4, $05, nFs4, $03, nG4, $08, nE4, $04, nRst, nC4, $08, nD4
	dc.b	$05, $03, nE4, $08, nD4, $04, nRst, nE4, $08, nD4, $05, $03
	dc.b	nE4, $05, nFs4, $03, nRst, $05, nFs4, $03, nA4, $08, nG4, $20
	smpsReturn

Casino_Street_Zone_Act_1_norm_Call29:
	dc.b	nG4, $02, nA4, $03, nB4, nA4, $02, nB4, $03, nC5, nB4, $02
	dc.b	nC5, $03, nD5, nE5, $02, nF5, $03, nG5, nRst, $20, nC4, $05
	dc.b	$03, nE4, $05, nF4, $03, nG4, $08, nC5, nB4, $0D, nG4, $0B
	dc.b	nE4, $08
	smpsReturn

Casino_Street_Zone_Act_1_norm_Call2A:
	dc.b	nA4, $0D, nE4, $13
	smpsReturn

Casino_Street_Zone_Act_1_norm_Call17:
	dc.b	smpsNoAttack, $20
	smpsSetvoice        $02
	dc.b	nG3, $05, $03, nC4, $05, nD4, $03, nE4, $08, nE4, nG4, $0D
	dc.b	nE4, $0B, nB3, $08, nE4, $0D, nC4, $13
	smpsReturn

Casino_Street_Zone_Act_1_norm_Call18:
	dc.b	smpsNoAttack, $14, nRst, $0C, nG3, $05, $03, nC4, $05, nD4, $03, nE4
	dc.b	$08, nA4, nG4, $0D, nE4, $0B, nB3, $08, nC4, $0D, nA4, $13
	smpsReturn

Casino_Street_Zone_Act_1_norm_Call19:
	dc.b	smpsNoAttack, $10, nRst, $08, nE4, $05, nG4, $03, nA4, $04, nRst, nA4
	dc.b	$08, nG4, $04, nRst, nE4, $08, nG4, $14, nRst, $04, nB3, $08
	dc.b	nF4, $04, nRst, nF4, $08, nE4, $04, nRst, nD4, $08
	smpsReturn

Casino_Street_Zone_Act_1_norm_Call1A:
	dc.b	nE4, $10, nC4, $04, nRst, nG3, $08, nA3, $04, nRst, nC4, $08
	dc.b	nA3, $04, nRst, nC4, $08, nA3, nC4, $05, nA3, $03, nRst, $05
	dc.b	nD4, $03, nFs4, $08, nD4, $20
	smpsReturn

Casino_Street_Zone_Act_1_norm_Call1B:
	dc.b	smpsNoAttack, $14, nRst, $0C, nG3, $05, $03, nC4, $02, nD4, $03, nEb4
	dc.b	nE4, $08, nE4, nG4, $05, nF4, $03, nE4, $05, nB3, $03, nRst
	dc.b	$05, nB3, $03, nD4, $08, nC4, $05, nB3, $03, nC4, $05, nA3
	dc.b	$13
	smpsReturn

Casino_Street_Zone_Act_1_norm_Call1C:
	dc.b	smpsNoAttack, $14, nRst, $0C, nG3, $05, $03, nC4, $02, nD4, $03, nEb4
	dc.b	nE4, $08, nE4, nG4, $05, nF4, $03, nE4, $05, nB3, $03, nRst
	dc.b	$05, nB3, $03, nD4, $08, nC4, $05, nB3, $03, nC4, $05, nA4
	dc.b	$13
	smpsReturn

Casino_Street_Zone_Act_1_norm_Call1D:
	dc.b	smpsNoAttack, $10, nRst, $05, nD4, $03, nE4, $05, nG4, $03, nA4, $05
	dc.b	$03, $08, nB4, $04, nRst, nA4, $08, nG4, $05, nFs4, $03, nG4
	dc.b	$05, nB3, $0B, nD4, $08, nF4, $05, nE4, $03, nF4, $08, nE4
	dc.b	$04, nRst, nD4, $08
	smpsReturn

Casino_Street_Zone_Act_1_norm_Call1E:
	dc.b	nE4, $05, nEb4, $03, nE4, $08, nC4, $04, nRst, nA3, $08, $05
	dc.b	$03, nC4, $08, nA3, $04, nRst, nC4, $08, nA3, $05, $03, nC4
	dc.b	$05, nD4, $03, nRst, $05, nD4, $03, nFs4, $08, nD4, $20
	smpsReturn

Casino_Street_Zone_Act_1_norm_Call1F:
	dc.b	nD4, $02, nE4, $03, nG4, nD4, $02, nG4, $03, nA4, nG4, $02
	dc.b	nA4, $03, nB4, nA4, $02, nF4, $03, nG4, nRst, $20, nG3, $05
	dc.b	$03, nC4, $05, nD4, $03, nE4, $08, nE4, nG4, $0D, nE4, $0B
	dc.b	nB3, $08
	smpsReturn

Casino_Street_Zone_Act_1_norm_Call20:
	dc.b	nE4, $0D, nC4, $13
	smpsReturn

Casino_Street_Zone_Act_1_norm_Call0E:
	dc.b	smpsNoAttack, $20
	smpsSetvoice        $01
	dc.b	nC3, $10, nG2, nE3, nB2, nA2, nC3
	smpsReturn

Casino_Street_Zone_Act_1_norm_Call0F:
	dc.b	nA2, $05, nA3, $03, nA2, $05, nG3, $03, nRst, $05, nG3, $03
	dc.b	nF3, $02, nE3, $03, nD3, nC3, $10, nG2, nE3, nB2, nA2, nC3
	smpsReturn

Casino_Street_Zone_Act_1_norm_Call10:
	dc.b	nA2, $05, nA3, $03, nA2, $05, nG3, $03, nRst, $05, nG3, $03
	dc.b	$08, nA2, nA2, nB2, nC4, nE3, $10, nRst, $05, nB2, $03, nB3
	dc.b	$08, nF3, nF3, nE3, nD3
	smpsReturn

Casino_Street_Zone_Act_1_norm_Call11:
	dc.b	nC3, $10, nA2, $05, nB2, $03, nC3, $08, nA3, $03, nRst, $05
	dc.b	nA3, $0B, nRst, $05, nA3, $03, nRst, $0D, nA3, $05, nC4, $03
	dc.b	nRst, $05, nA3, $03, nC4, $08, nG3, $03, nRst, $05, nG3, $08
	dc.b	nF3, $03, nRst, $05, nF3, $08
	smpsReturn

Casino_Street_Zone_Act_1_norm_Call12:
	dc.b	nE3, $03, nRst, $05, nE3, nD3, $03, nRst, $05, nD3, $03, $08
	dc.b	nC3, $10, nG2, nE3, nB2, nA2, nC3
	smpsReturn

Casino_Street_Zone_Act_1_norm_Call13:
	dc.b	nA2, $05, nA3, $03, nA2, $05, nG3, $03, nRst, $05, nG3, $03
	dc.b	$08, nA2, nC4, nB2, nC4, nE3, $10, nRst, $05, nB2, $03, nB3
	dc.b	$08, nF3, nC4, nE3, nC4
	smpsReturn

Casino_Street_Zone_Act_1_norm_Call14:
	dc.b	nC3, $10, nA2, $05, nB2, $03, nC4, $08, nA3, $03, nRst, $05
	dc.b	nA3, $0B, nRst, $05, nA3, $03, nRst, $0D, nA3, $05, nC4, $03
	dc.b	nRst, $05, nA3, $03, nC4, $08, nG3, $03, nRst, $05, nD4, $08
	dc.b	nF3, $03, nRst, $05, nF3, $08
	smpsReturn

Casino_Street_Zone_Act_1_norm_Call15:
	dc.b	nE3, $03, nRst, $05, nD4, nD3, $03, nRst, $05, nD3, $03, $08
	dc.b	nRst, $20, nC3, $10, nG2, nE3, nB2
	smpsReturn

Casino_Street_Zone_Act_1_norm_Call16:
	dc.b	nA2, $10, nC3
	smpsReturn

Casino_Street_Zone_Act_1_norm_Call05:
	dc.b	smpsNoAttack, $28
	smpsSetvoice        $01
	dc.b	nG3, $08, nRst, nG3, nRst, nB3, nRst, nB3, nRst, nA3, nRst, nA3
	smpsReturn

Casino_Street_Zone_Act_1_norm_Call06:
	dc.b	nRst, $28, nE3, $08, nRst, nE3, nRst, nB3, nRst, nB3, nRst, nA3
	dc.b	nRst, nA3
	smpsReturn

Casino_Street_Zone_Act_1_norm_Call07:
	dc.b	nRst, $28, nC4, $08, nRst, nC3, nRst, nB3, nRst, nB2, nRst, nC4
	dc.b	nRst, nC4
	smpsReturn

Casino_Street_Zone_Act_1_norm_Call08:
	dc.b	nRst, $08, nC4, nRst, nC4, nRst, $48, nD4, $08, nRst, nD4
	smpsReturn

Casino_Street_Zone_Act_1_norm_Call09:
	dc.b	nRst, $08, nD4, $10, $08, nRst, nG3, nRst, nG3, nRst, nB3, nRst
	dc.b	nB3, nRst, nA3, nRst, nA3
	smpsReturn

Casino_Street_Zone_Act_1_norm_Call0A:
	dc.b	nRst, $28, nA2, $08, nRst, nC3, nRst, nB3, nRst, nB2, nRst, nF3
	dc.b	nRst, nD3
	smpsReturn

Casino_Street_Zone_Act_1_norm_Call0B:
	dc.b	nRst, $08, nC4, nRst, nC3, nRst, $48, nG3, $08, nRst, nD4
	smpsReturn

Casino_Street_Zone_Act_1_norm_Call0C:
	dc.b	nRst, $08, nE3, $10, nD4, $08, nRst, $28, nG3, $08, nRst, nG3
	dc.b	nRst, nB3, nRst, nB3
	smpsReturn

Casino_Street_Zone_Act_1_norm_Call0D:
	dc.b	nRst, $08, nA3, nRst, nA3
	smpsReturn

Casino_Street_Zone_Act_1_norm_Call3C:
	dc.b	smpsNoAttack, $7F, smpsNoAttack, $01
	smpsReturn

Casino_Street_Zone_Act_1_norm_Call3D:
	dc.b	smpsNoAttack, $4D
	smpsPSGvoice        $00
	dc.b	nB2, $03, nRst, $30
	smpsReturn

Casino_Street_Zone_Act_1_norm_Call3E:
	dc.b	smpsNoAttack, nRst, $20
	smpsReturn

Casino_Street_Zone_Act_1_norm_Call39:
	dc.b	smpsNoAttack, nRst, $7F, smpsNoAttack, nRst, $01
	smpsReturn

Casino_Street_Zone_Act_1_norm_Call3A:
	dc.b	smpsNoAttack, nRst, $4D
	smpsPSGvoice        $00
	dc.b	nB2, $03, nRst, $30
	smpsReturn

Casino_Street_Zone_Act_1_norm_Call3B:
	dc.b	smpsNoAttack, nRst, $20
	smpsReturn

Casino_Street_Zone_Act_1_norm_Call32:
	smpsPSGvoice        fTone_02
	dc.b	nCs0, $08, $05, $03, $02, nCs0, nRst, $01, nCs0, $03, $08, nCs0
	dc.b	nCs0, $05, $03, $08, $05, $03, $08, $05, $03, $08, $05, $03
	dc.b	$08, $05, $03, $08, $05, $03
	smpsReturn

Casino_Street_Zone_Act_1_norm_Call33:
	smpsPSGvoice        fTone_02
	dc.b	nCs0, $08, $05, $03, $08, $05, $03, $08, $05, $03, $08, $05
	dc.b	$03, $08, $05, $03, $08, $05, $03, $08, $05, $03, $08, $05
	dc.b	$03
	smpsReturn

Casino_Street_Zone_Act_1_norm_Call34:
	smpsPSGvoice        fTone_02
	dc.b	nCs0, $05, $03, $08, nCs0, nCs0, nCs0, $05, $03, $05, $03, $08
	dc.b	nCs0, nCs0, $05, $03, $05, $03, $08, nCs0, nCs0, $05, $03, $05
	dc.b	$03, $08, nCs0
	smpsReturn

Casino_Street_Zone_Act_1_norm_Call35:
	smpsPSGvoice        fTone_02
	dc.b	nCs0, $05, $03, $05, $03, $08, nCs0, nCs0, $05, $03, $08, $05
	dc.b	$03, $08, $05, $03, $08, $05, $03, $08, $05, $03, $08, $05
	dc.b	$03, $08
	smpsReturn

Casino_Street_Zone_Act_1_norm_Call36:
	smpsPSGvoice        fTone_02
	dc.b	nCs0, $05, $03, $08, nCs0, nCs0, nCs0, nCs0, $05, $03, $08, $05
	dc.b	$03, $08, $05, $03, $08, $05, $03, $08, $05, $03, $08, $05
	dc.b	$03
	smpsReturn

Casino_Street_Zone_Act_1_norm_Call37:
	smpsPSGvoice        fTone_02
	dc.b	nCs0, $05, $03, $08, nCs0, nCs0, nCs0, nCs0, $05, $03, $02, nCs0
	dc.b	nRst, $01, nCs0, $03, $08, nCs0, nCs0, $05, $03, $08, $05, $03
	dc.b	$08, $05, $03, $08, $05, $03
	smpsReturn

Casino_Street_Zone_Act_1_norm_Call38:
	smpsPSGvoice        fTone_02
	dc.b	nCs0, $08, $05, $03, $08, $05, $03
	smpsReturn

Casino_Street_Zone_Act_1_norm_Call00:
	dc.b	dSnare, $02, dSnare, nRst, $01, dSnare, $03, $08, $05, dKick, $0B, $08
	dc.b	dSnare, dKick, dSnare, dKick, dSnare, dKick, $05, dSnare, $03, $08, dKick, dSnare
	dc.b	dKick, dSnare
	smpsReturn

Casino_Street_Zone_Act_1_norm_Call01:
	dc.b	dKick, $08, dSnare, dKick, $05, dSnare, $03, $05, $03, dKick, $08, dSnare
	dc.b	dKick, dSnare, dKick, dSnare, dKick, $05, dSnare, $03, $08, dKick, dSnare, dKick
	dc.b	dSnare
	smpsReturn

Casino_Street_Zone_Act_1_norm_Call02:
	dc.b	dKick, $08, dSnare, $05, $03, dKick, $02, dSnare, nRst, $04, dSnare, $05
	dc.b	$03, dKick, $08, dSnare, dKick, dSnare, dKick, dSnare, dKick, $05, dSnare, $03
	dc.b	$08, dKick, dSnare, dKick, dSnare
	smpsReturn

Casino_Street_Zone_Act_1_norm_Call03:
	dc.b	dKick, $08, dSnare, $05, $03, dKick, $02, dSnare, nRst, $04, dSnare, $05
	dc.b	$03, $02, dSnare, nRst, $01, dSnare, $03, $08, $05, dKick, $0B, $08
	dc.b	dSnare, dKick, dSnare, dKick, dSnare, dKick, $05, dSnare, $03, $08
	smpsReturn

Casino_Street_Zone_Act_1_norm_Call04:
	dc.b	dKick, $08, dSnare, dKick, dSnare
	smpsReturn

Casino_Street_Zone_Act_1_norm_Voices:
;	Voice $00
;	$2A
;	$30, $70, $08, $01, 	$1F, $1F, $1F, $1F, 	$08, $10, $0E, $0C
;	$00, $03, $06, $05, 	$30, $20, $29, $28, 	$22, $14, $2A, $0F
	smpsVcAlgorithm     $02
	smpsVcFeedback      $05
	smpsVcUnusedBits    $00
	smpsVcDetune        $00, $00, $07, $03
	smpsVcCoarseFreq    $01, $08, $00, $00
	smpsVcRateScale     $00, $00, $00, $00
	smpsVcAttackRate    $1F, $1F, $1F, $1F
	smpsVcAmpMod        $00, $00, $00, $00
	smpsVcDecayRate1    $0C, $0E, $10, $08
	smpsVcDecayRate2    $05, $06, $03, $00
	smpsVcDecayLevel    $02, $02, $02, $03
	smpsVcReleaseRate   $08, $09, $00, $00
	smpsVcTotalLevel    $0F, $2A, $14, $22

;	Voice $01
;	$3A
;	$01, $07, $31, $71, 	$8E, $8E, $8D, $53, 	$0E, $0E, $0E, $06
;	$00, $00, $00, $00, 	$1F, $FF, $1F, $2F, 	$18, $28, $27, $0F
	smpsVcAlgorithm     $02
	smpsVcFeedback      $07
	smpsVcUnusedBits    $00
	smpsVcDetune        $07, $03, $00, $00
	smpsVcCoarseFreq    $01, $01, $07, $01
	smpsVcRateScale     $01, $02, $02, $02
	smpsVcAttackRate    $13, $0D, $0E, $0E
	smpsVcAmpMod        $00, $00, $00, $00
	smpsVcDecayRate1    $06, $0E, $0E, $0E
	smpsVcDecayRate2    $00, $00, $00, $00
	smpsVcDecayLevel    $02, $01, $0F, $01
	smpsVcReleaseRate   $0F, $0F, $0F, $0F
	smpsVcTotalLevel    $0F, $27, $28, $18

;	Voice $02
;	$3A
;	$01, $07, $31, $71, 	$8E, $8E, $8D, $53, 	$0E, $0E, $0E, $06
;	$00, $00, $00, $00, 	$1F, $FF, $1F, $2F, 	$18, $28, $27, $14
	smpsVcAlgorithm     $02
	smpsVcFeedback      $07
	smpsVcUnusedBits    $00
	smpsVcDetune        $07, $03, $00, $00
	smpsVcCoarseFreq    $01, $01, $07, $01
	smpsVcRateScale     $01, $02, $02, $02
	smpsVcAttackRate    $13, $0D, $0E, $0E
	smpsVcAmpMod        $00, $00, $00, $00
	smpsVcDecayRate1    $06, $0E, $0E, $0E
	smpsVcDecayRate2    $00, $00, $00, $00
	smpsVcDecayLevel    $02, $01, $0F, $01
	smpsVcReleaseRate   $0F, $0F, $0F, $0F
	smpsVcTotalLevel    $14, $27, $28, $18

