staffcreditsunfinished_Header:
	smpsHeaderStartSong 1
	smpsHeaderVoice     staffcreditsunfinished_Voices
	smpsHeaderChan      $06, $03
	smpsHeaderTempo     $02, $03

	smpsHeaderDAC       staffcreditsunfinished_DAC
	smpsHeaderFM        staffcreditsunfinished_FM1,	$00, $10
	smpsHeaderFM        staffcreditsunfinished_FM2,	$00, $10
	smpsHeaderFM        staffcreditsunfinished_FM3,	$00, $10
	smpsHeaderFM        staffcreditsunfinished_FM4,	$00, $10
	smpsHeaderFM        staffcreditsunfinished_FM5,	$00, $10
	smpsHeaderPSG       staffcreditsunfinished_PSG1,	$D0, $02, $00, $00
	smpsHeaderPSG       staffcreditsunfinished_PSG2,	$D0, $02, $00, $00
	smpsHeaderPSG       staffcreditsunfinished_PSG3,	$E8, $02, $00, $00

; FM1 Data
staffcreditsunfinished_FM1:
	smpsCall            staffcreditsunfinished_Call59
	smpsCall            staffcreditsunfinished_Call5A
	smpsCall            staffcreditsunfinished_Call5B
	smpsCall            staffcreditsunfinished_Call5C
	smpsCall            staffcreditsunfinished_Call5D
	smpsCall            staffcreditsunfinished_Call5E
	smpsCall            staffcreditsunfinished_Call5F
	smpsCall            staffcreditsunfinished_Call60
	smpsCall            staffcreditsunfinished_Call61
	smpsCall            staffcreditsunfinished_Call62
	smpsCall            staffcreditsunfinished_Call63
	smpsCall            staffcreditsunfinished_Call64
	smpsCall            staffcreditsunfinished_Call65
	smpsCall            staffcreditsunfinished_Call66
	smpsCall            staffcreditsunfinished_Call67
	smpsCall            staffcreditsunfinished_Call68
	smpsCall            staffcreditsunfinished_Call69
	smpsCall            staffcreditsunfinished_Call6A
	smpsCall            staffcreditsunfinished_Call6B
	smpsCall            staffcreditsunfinished_Call6C
	smpsCall            staffcreditsunfinished_Call6D
	smpsCall            staffcreditsunfinished_Call6D
	smpsCall            staffcreditsunfinished_Call6D
	smpsCall            staffcreditsunfinished_Call6E
	smpsCall            staffcreditsunfinished_Call6F
	smpsCall            staffcreditsunfinished_Call6D
	smpsCall            staffcreditsunfinished_Call70
	smpsCall            staffcreditsunfinished_Call71
	smpsCall            staffcreditsunfinished_Call72
	smpsCall            staffcreditsunfinished_Call6D
	smpsStop

; FM2 Data
staffcreditsunfinished_FM2:
	smpsCall            staffcreditsunfinished_Call42
	smpsCall            staffcreditsunfinished_Call43
	smpsCall            staffcreditsunfinished_Call44
	smpsCall            staffcreditsunfinished_Call45
	smpsCall            staffcreditsunfinished_Call46
	smpsCall            staffcreditsunfinished_Call47
	smpsCall            staffcreditsunfinished_Call48
	smpsCall            staffcreditsunfinished_Call49
	smpsCall            staffcreditsunfinished_Call4A
	smpsCall            staffcreditsunfinished_Call4B
	smpsCall            staffcreditsunfinished_Call4C
	smpsCall            staffcreditsunfinished_Call4C
	smpsCall            staffcreditsunfinished_Call4C
	smpsCall            staffcreditsunfinished_Call4C
	smpsCall            staffcreditsunfinished_Call4D
	smpsCall            staffcreditsunfinished_Call4E
	smpsCall            staffcreditsunfinished_Call4F
	smpsCall            staffcreditsunfinished_Call50
	smpsCall            staffcreditsunfinished_Call51
	smpsCall            staffcreditsunfinished_Call52
	smpsCall            staffcreditsunfinished_Call53
	smpsCall            staffcreditsunfinished_Call54
	smpsCall            staffcreditsunfinished_Call4C
	smpsCall            staffcreditsunfinished_Call55
	smpsCall            staffcreditsunfinished_Call56
	smpsCall            staffcreditsunfinished_Call57
	smpsCall            staffcreditsunfinished_Call58
	smpsCall            staffcreditsunfinished_Call4C
	smpsCall            staffcreditsunfinished_Call4C
	smpsCall            staffcreditsunfinished_Call4C
	smpsStop

; FM3 Data
staffcreditsunfinished_FM3:
	smpsCall            staffcreditsunfinished_Call33
	smpsCall            staffcreditsunfinished_Call34
	smpsCall            staffcreditsunfinished_Call35
	smpsCall            staffcreditsunfinished_Call36
	smpsCall            staffcreditsunfinished_Call37
	smpsCall            staffcreditsunfinished_Call38
	smpsCall            staffcreditsunfinished_Call39
	smpsCall            staffcreditsunfinished_Call39
	smpsCall            staffcreditsunfinished_Call39
	smpsCall            staffcreditsunfinished_Call39
	smpsCall            staffcreditsunfinished_Call39
	smpsCall            staffcreditsunfinished_Call39
	smpsCall            staffcreditsunfinished_Call39
	smpsCall            staffcreditsunfinished_Call39
	smpsCall            staffcreditsunfinished_Call3A
	smpsCall            staffcreditsunfinished_Call39
	smpsCall            staffcreditsunfinished_Call39
	smpsCall            staffcreditsunfinished_Call39
	smpsCall            staffcreditsunfinished_Call39
	smpsCall            staffcreditsunfinished_Call3B
	smpsCall            staffcreditsunfinished_Call3C
	smpsCall            staffcreditsunfinished_Call3D
	smpsCall            staffcreditsunfinished_Call3E
	smpsCall            staffcreditsunfinished_Call3F
	smpsCall            staffcreditsunfinished_Call39
	smpsCall            staffcreditsunfinished_Call39
	smpsCall            staffcreditsunfinished_Call39
	smpsCall            staffcreditsunfinished_Call40
	smpsCall            staffcreditsunfinished_Call41
	smpsCall            staffcreditsunfinished_Call39
	smpsStop

; FM4 Data
staffcreditsunfinished_FM4:
	smpsCall            staffcreditsunfinished_Call20
	smpsCall            staffcreditsunfinished_Call21
	smpsCall            staffcreditsunfinished_Call22
	smpsCall            staffcreditsunfinished_Call22
	smpsCall            staffcreditsunfinished_Call22
	smpsCall            staffcreditsunfinished_Call22
	smpsCall            staffcreditsunfinished_Call23
	smpsCall            staffcreditsunfinished_Call22
	smpsCall            staffcreditsunfinished_Call24
	smpsCall            staffcreditsunfinished_Call25
	smpsCall            staffcreditsunfinished_Call26
	smpsCall            staffcreditsunfinished_Call27
	smpsCall            staffcreditsunfinished_Call28
	smpsCall            staffcreditsunfinished_Call29
	smpsCall            staffcreditsunfinished_Call2A
	smpsCall            staffcreditsunfinished_Call22
	smpsCall            staffcreditsunfinished_Call22
	smpsCall            staffcreditsunfinished_Call2B
	smpsCall            staffcreditsunfinished_Call2C
	smpsCall            staffcreditsunfinished_Call2D
	smpsCall            staffcreditsunfinished_Call2E
	smpsCall            staffcreditsunfinished_Call2F
	smpsCall            staffcreditsunfinished_Call22
	smpsCall            staffcreditsunfinished_Call22
	smpsCall            staffcreditsunfinished_Call22
	smpsCall            staffcreditsunfinished_Call22
	smpsCall            staffcreditsunfinished_Call30
	smpsCall            staffcreditsunfinished_Call31
	smpsCall            staffcreditsunfinished_Call32
	smpsCall            staffcreditsunfinished_Call22
	smpsStop

; FM5 Data
staffcreditsunfinished_FM5:
	smpsCall            staffcreditsunfinished_Call1C
	smpsCall            staffcreditsunfinished_Call1C
	smpsCall            staffcreditsunfinished_Call1C
	smpsCall            staffcreditsunfinished_Call1C
	smpsCall            staffcreditsunfinished_Call1C
	smpsCall            staffcreditsunfinished_Call1C
	smpsCall            staffcreditsunfinished_Call1C
	smpsCall            staffcreditsunfinished_Call1C
	smpsCall            staffcreditsunfinished_Call1C
	smpsCall            staffcreditsunfinished_Call1C
	smpsCall            staffcreditsunfinished_Call1C
	smpsCall            staffcreditsunfinished_Call1C
	smpsCall            staffcreditsunfinished_Call1D
	smpsCall            staffcreditsunfinished_Call1C
	smpsCall            staffcreditsunfinished_Call1C
	smpsCall            staffcreditsunfinished_Call1C
	smpsCall            staffcreditsunfinished_Call1C
	smpsCall            staffcreditsunfinished_Call1C
	smpsCall            staffcreditsunfinished_Call1C
	smpsCall            staffcreditsunfinished_Call1C
	smpsCall            staffcreditsunfinished_Call1C
	smpsCall            staffcreditsunfinished_Call1C
	smpsCall            staffcreditsunfinished_Call1C
	smpsCall            staffcreditsunfinished_Call1E
	smpsCall            staffcreditsunfinished_Call1F
	smpsCall            staffcreditsunfinished_Call1C
	smpsCall            staffcreditsunfinished_Call1C
	smpsCall            staffcreditsunfinished_Call1C
	smpsCall            staffcreditsunfinished_Call1C
	smpsCall            staffcreditsunfinished_Call1C
	smpsStop

; PSG1 Data
staffcreditsunfinished_PSG1:
	smpsCall            staffcreditsunfinished_Call9D
	smpsCall            staffcreditsunfinished_Call9E
	smpsCall            staffcreditsunfinished_Call9F
	smpsCall            staffcreditsunfinished_CallA0
	smpsCall            staffcreditsunfinished_CallA1
	smpsCall            staffcreditsunfinished_CallA2
	smpsCall            staffcreditsunfinished_CallA3
	smpsCall            staffcreditsunfinished_CallA3
	smpsCall            staffcreditsunfinished_CallA3
	smpsCall            staffcreditsunfinished_CallA3
	smpsCall            staffcreditsunfinished_CallA4
	smpsCall            staffcreditsunfinished_CallA5
	smpsCall            staffcreditsunfinished_CallA6
	smpsCall            staffcreditsunfinished_CallA7
	smpsCall            staffcreditsunfinished_CallA8
	smpsCall            staffcreditsunfinished_CallA9
	smpsCall            staffcreditsunfinished_CallAA
	smpsCall            staffcreditsunfinished_CallAB
	smpsCall            staffcreditsunfinished_CallAC
	smpsCall            staffcreditsunfinished_CallAD
	smpsCall            staffcreditsunfinished_CallAE
	smpsCall            staffcreditsunfinished_CallAF
	smpsCall            staffcreditsunfinished_CallA3
	smpsCall            staffcreditsunfinished_CallA3
	smpsCall            staffcreditsunfinished_CallA3
	smpsCall            staffcreditsunfinished_CallA3
	smpsCall            staffcreditsunfinished_CallB0
	smpsCall            staffcreditsunfinished_CallB1
	smpsCall            staffcreditsunfinished_CallB2
	smpsCall            staffcreditsunfinished_CallA3
	smpsStop

; PSG2 Data
staffcreditsunfinished_PSG2:
	smpsCall            staffcreditsunfinished_Call8F
	smpsCall            staffcreditsunfinished_Call90
	smpsCall            staffcreditsunfinished_Call91
	smpsCall            staffcreditsunfinished_Call92
	smpsCall            staffcreditsunfinished_Call93
	smpsCall            staffcreditsunfinished_Call94
	smpsCall            staffcreditsunfinished_Call95
	smpsCall            staffcreditsunfinished_Call96
	smpsCall            staffcreditsunfinished_Call97
	smpsCall            staffcreditsunfinished_Call98
	smpsCall            staffcreditsunfinished_Call99
	smpsCall            staffcreditsunfinished_Call99
	smpsCall            staffcreditsunfinished_Call99
	smpsCall            staffcreditsunfinished_Call99
	smpsCall            staffcreditsunfinished_Call99
	smpsCall            staffcreditsunfinished_Call99
	smpsCall            staffcreditsunfinished_Call99
	smpsCall            staffcreditsunfinished_Call99
	smpsCall            staffcreditsunfinished_Call99
	smpsCall            staffcreditsunfinished_Call99
	smpsCall            staffcreditsunfinished_Call99
	smpsCall            staffcreditsunfinished_Call99
	smpsCall            staffcreditsunfinished_Call99
	smpsCall            staffcreditsunfinished_Call99
	smpsCall            staffcreditsunfinished_Call9A
	smpsCall            staffcreditsunfinished_Call9B
	smpsCall            staffcreditsunfinished_Call9C
	smpsCall            staffcreditsunfinished_Call99
	smpsCall            staffcreditsunfinished_Call99
	smpsCall            staffcreditsunfinished_Call99
	smpsStop

; PSG3 Data
staffcreditsunfinished_PSG3:
	smpsPSGform         $E7
	smpsCall            staffcreditsunfinished_Call73
	smpsCall            staffcreditsunfinished_Call74
	smpsCall            staffcreditsunfinished_Call75
	smpsCall            staffcreditsunfinished_Call76
	smpsCall            staffcreditsunfinished_Call77
	smpsCall            staffcreditsunfinished_Call78
	smpsCall            staffcreditsunfinished_Call79
	smpsCall            staffcreditsunfinished_Call7A
	smpsCall            staffcreditsunfinished_Call7B
	smpsCall            staffcreditsunfinished_Call7C
	smpsCall            staffcreditsunfinished_Call7D
	smpsCall            staffcreditsunfinished_Call7E
	smpsCall            staffcreditsunfinished_Call7F
	smpsCall            staffcreditsunfinished_Call80
	smpsCall            staffcreditsunfinished_Call81
	smpsCall            staffcreditsunfinished_Call82
	smpsCall            staffcreditsunfinished_Call83
	smpsCall            staffcreditsunfinished_Call84
	smpsCall            staffcreditsunfinished_Call85
	smpsCall            staffcreditsunfinished_Call86
	smpsCall            staffcreditsunfinished_Call87
	smpsCall            staffcreditsunfinished_Call87
	smpsCall            staffcreditsunfinished_Call88
	smpsCall            staffcreditsunfinished_Call89
	smpsCall            staffcreditsunfinished_Call8A
	smpsCall            staffcreditsunfinished_Call8A
	smpsCall            staffcreditsunfinished_Call8B
	smpsCall            staffcreditsunfinished_Call8C
	smpsCall            staffcreditsunfinished_Call8D
	smpsCall            staffcreditsunfinished_Call8E
	smpsStop

; DAC Data
staffcreditsunfinished_DAC:
	smpsCall            staffcreditsunfinished_Call00
	smpsCall            staffcreditsunfinished_Call01
	smpsCall            staffcreditsunfinished_Call02
	smpsCall            staffcreditsunfinished_Call03
	smpsCall            staffcreditsunfinished_Call04
	smpsCall            staffcreditsunfinished_Call05
	smpsCall            staffcreditsunfinished_Call06
	smpsCall            staffcreditsunfinished_Call07
	smpsCall            staffcreditsunfinished_Call08
	smpsCall            staffcreditsunfinished_Call09
	smpsCall            staffcreditsunfinished_Call0A
	smpsCall            staffcreditsunfinished_Call0B
	smpsCall            staffcreditsunfinished_Call0C
	smpsCall            staffcreditsunfinished_Call0B
	smpsCall            staffcreditsunfinished_Call0D
	smpsCall            staffcreditsunfinished_Call0E
	smpsCall            staffcreditsunfinished_Call0F
	smpsCall            staffcreditsunfinished_Call10
	smpsCall            staffcreditsunfinished_Call0F
	smpsCall            staffcreditsunfinished_Call11
	smpsCall            staffcreditsunfinished_Call12
	smpsCall            staffcreditsunfinished_Call13
	smpsCall            staffcreditsunfinished_Call14
	smpsCall            staffcreditsunfinished_Call15
	smpsCall            staffcreditsunfinished_Call16
	smpsCall            staffcreditsunfinished_Call17
	smpsCall            staffcreditsunfinished_Call18
	smpsCall            staffcreditsunfinished_Call19
	smpsCall            staffcreditsunfinished_Call1A
	smpsCall            staffcreditsunfinished_Call1B
	smpsStop

staffcreditsunfinished_Call59:
	smpsSetvoice        $00
	dc.b	nE2, $0A, nRst, $02, nB3, nE2, nA2, nRst, nA2, $04, nRst, nA3
	dc.b	$02, nFs2, nRst, $04, nFs2, nRst, nFs2, $02, nFs3, nA2, nA3, nA2
	dc.b	$04, nB2, nB3, nAb2, $08, nE3, $04, nA2, $06, nRst, $02, nA2
	dc.b	$04, nE3, nB2, $08, nE2, nFs2, $04, nRst, $02, nFs2, nAb2, $04
	dc.b	nB2, nAb2
	smpsReturn

staffcreditsunfinished_Call5A:
	dc.b	nCs3, $04, nE2, $08, nFs2, nAb2, $04, nA2, nB2, $06, nRst, $02
	dc.b	nB2, $04, $02, nRst, nA2, $04, $02, nRst, nBb2, $04, $02, nRst
	dc.b	nB2, $06, nRst, $02, nB2, nRst, nB2, nRst, nB2, nRst, $12, nF3
	dc.b	$04, nF4, nF3, nF4, nF3, nF4, nF3, nF4
	smpsReturn

staffcreditsunfinished_Call5B:
	dc.b	nEb3, $04, nEb4, nEb3, nEb4, nEb3, nEb4, nEb3, nEb4, nBb2, nBb3, nBb2
	dc.b	nBb3, nBb2, nBb3, nBb2, nBb3, nC3, nC4, nC3, nC4, nC3, nC4, nD3
	dc.b	nE3, nF3, nF4, nF3, nF4, nF3, nG3, nA3, nF3
	smpsReturn

staffcreditsunfinished_Call5C:
	dc.b	nEb3, $04, nEb4, nEb3, nEb4, nBb3, nA3, nF3, nEb3, nD3, nD4, nD3
	dc.b	nD4, nD3, nD4, nD3, nD4, nC3, nC4, nC3, nC4, nC3, nC4, nC3
	dc.b	nC4, nBb2, nBb3, nBb2, nBb3, nBb2, nBb3, nBb2, nC3
	smpsReturn

staffcreditsunfinished_Call5D:
	dc.b	smpsNoAttack, $04, nC4, nC3, nC4, nC3, nC4, nC3, nC4, nD3, nD4, nD3
	dc.b	nD4, nD3, nD4, nD3, nD4, nEb3, nEb4, nEb3, nEb4, nEb3, nEb4, nEb3
	dc.b	nEb4, nBb2, nBb3, nBb2, nBb3, nBb2, nBb3, nBb2, nBb3
	smpsReturn

staffcreditsunfinished_Call5E:
	dc.b	nC3, $04, nC4, nC3, nC4, nC3, nF3, nFs3, nG3, $08, $04, nF3
	dc.b	nF3, nE3, nE3, nD3, nC3, nC4, $10, nB3, $0A, nRst, $02, nB3
	dc.b	$04, nA3, $0A, nRst, $02, nA3, $04, nG3, $0A, nRst, $02, nG3
	dc.b	$04
	smpsReturn

staffcreditsunfinished_Call5F:
	dc.b	nF3, $04, nF4, nF3, nF4, nF3, nF4, nF3, nF4, nG3, nG4, nG3
	dc.b	nG4, nG3, nG4, nG3, nFs3, nF3, nF3, nC4, nC4, nA3, nA3, nF3
	dc.b	nE3, nRst, nE3, nB3, nB3, nG3, nG3, nE3, nE3
	smpsReturn

staffcreditsunfinished_Call60:
	dc.b	nD4, $04, nD4, nA3, $08, nB3, $04, nB3, nG4, nF4, $08, $04
	dc.b	nE4, nE4, nD4, nD4, nC4, nC4, nF3, nF3, nC4, nC4, nA3, nA3
	dc.b	nF3, nE3, nRst, nE3, nB3, nB3, nG3, nG3, nE3, nE3
	smpsReturn

staffcreditsunfinished_Call61:
	dc.b	nD4, $04, nD4, nC4, nC4, nFs4, nE4, nD4, nG3, $08, $04, nG3
	dc.b	nG3, nRst, $10, nC3, $04, nC4, nC3, nC4, nC3, nC4, nC3, nD3
	dc.b	nE3, nE4, nE3, nE4, nE3, nE4, nE3, nG3
	smpsReturn

staffcreditsunfinished_Call62:
	dc.b	nF3, $04, nF4, nF3, nF4, nF3, nF4, nF3, nFs3, nG3, nE3, nF3
	dc.b	nG3, nF3, nE3, nD3, nC3, nF3, nC3, nF3, nG3, nRst, nD3, nRst
	dc.b	nC3, $08, $04, nE3, nRst, nF3, nRst, nFs3, nG3
	smpsReturn

staffcreditsunfinished_Call63:
	dc.b	nRst, $0E, nE3, $02, nD3, $06, nC3, $02, nB2, $06, nG2, $02
	dc.b	nC3, $0B, nRst, $03, nC3, $02, nG2, $0B, nRst, $03, nG2, $02
	dc.b	nE2, $0B, nRst, $03, nE2, $02, nB2, $0B, nRst, $03, nB2, $02
	dc.b	nA2, $0B, nRst, $03, nA2, $02, nC3, $0B, nRst, $03, nC3, $02
	smpsReturn

staffcreditsunfinished_Call64:
	dc.b	nA2, $03, nRst, nA2, $02, $06, nB2, $05, nRst, $03, nB2, $02
	dc.b	nG2, $08, nC3, $0B, nRst, $03, nC3, $02, nG2, $0B, nRst, $03
	dc.b	nG2, $02, nE2, $0B, nRst, $03, nE2, $02, nB2, $0B, nRst, $03
	dc.b	nB2, $02, nA2, $0B, nRst, $03, nA2, $02, nC3, $0B, nRst, $03
	dc.b	nC3, $02
	smpsReturn

staffcreditsunfinished_Call65:
	dc.b	nA2, $03, nRst, nA2, $02, $06, nB2, $02, nRst, $06, nB2, $02
	dc.b	nG2, $08, nA2, $06, nRst, $02, nA2, $08, nB2, $06, nRst, $02
	dc.b	nC3, $08, nE3, $06, nRst, $02, nD3, $08, nE3, $06, nRst, $02
	dc.b	nG3, $08, nF3, $06, nRst, $02, nA2, $08, nC3, $06, nRst, $02
	dc.b	nD3, $08
	smpsReturn

staffcreditsunfinished_Call66:
	dc.b	nE3, $06, nRst, $02, nC3, $08, nA2, $06, nRst, $02, nC3, $08
	dc.b	nD3, $06, nRst, $02, nD3, $08, nC3, $06, nRst, $02, nC3, $08
	dc.b	nB2, $06, nRst, $02, nB2, $08, nA2, $06, nRst, $02, nD3, $08
	dc.b	nG3, $06, nG2, $05, nRst, $03, nG2, $02, nF3, $06, nG2, $05
	dc.b	nRst, $03, nG2, $02
	smpsReturn

staffcreditsunfinished_Call67:
	dc.b	nE3, $06, nG2, $05, nRst, $03, nG2, $02, nD3, $06, nE3, $02
	dc.b	nD3, $08, nRst, $0E, nE3, $02, nD3, $06, nC3, $02, nB2, $06
	dc.b	nG2, $02, nC2, $08, nG2, $04, nC2, $08, nD2, $04, nEb2, nG2
	dc.b	nBb2, $08, nF2, $04, nBb2, $08, nC3, $02, nC4, nBb2, nF3, nBb3
	dc.b	nF4
	smpsReturn

staffcreditsunfinished_Call68:
	dc.b	nAb2, $08, nEb2, $04, nAb2, $08, nG2, $04, nF2, nEb2, nCs2, $08
	dc.b	nAb2, $04, nCs2, nCs3, $02, nCs2, nF2, nAb2, nCs3, nF3, nAb3, nCs4
	dc.b	nC2, $08, nG2, $04, nC2, $08, nD2, $04, nEb2, nG2, nBb2, $08
	dc.b	nF2, $04, nBb2, $08, nF2, $04, nBb2, $02, nBb3, nA2, nA3
	smpsReturn

staffcreditsunfinished_Call69:
	dc.b	nAb2, $08, nEb2, $04, nAb2, $08, nG2, $02, nG3, nFs2, $04, nF2
	dc.b	nEb2, nEb2, nRst, nF2, nRst, nFs2, nG2, $02, nG3, nG4, nG3, nC2
	dc.b	$08, nG2, $04, nC2, $08, nD2, $04, nEb2, nG2, nBb2, $08, nF2
	dc.b	$04, nBb2, $08, nF2, $04, nBb2, $02, nBb3, nA2, nA3
	smpsReturn

staffcreditsunfinished_Call6A:
	dc.b	nAb2, $08, nEb2, $04, nAb2, $08, $02, nAb3, nG2, $04, nEb2, nF2
	dc.b	nF2, nRst, nAb2, nRst, nFs2, nRst, nG2, nC3, nC2, nG2, nC2, $08
	dc.b	nD2, $04, nEb2, nG2, nBb2, $08, nF2, $04, nBb2, $08, nF2, $04
	dc.b	nBb2, $02, nBb3, nA3, $04
	smpsReturn

staffcreditsunfinished_Call6B:
	dc.b	nAb3, $08, nEb3, $04, nAb2, $08, nG2, $02, nG3, nFs2, $04, nF2
	dc.b	$08, nAb2, $04, nRst, nG2, nRst, nAb2, $02, nAb3, nG2, $04, nBb2
	dc.b	$02, nBb3, nC2, $08, nG2, $04, nC2, $08, nG2, $04, nFs2, $02
	dc.b	nG3, nF2, $04, nEb2, $08, nBb2, $04, nEb2, $08, nBb2, $04, nEb3
	dc.b	$02, nG3, nBb3, nEb4
	smpsReturn

staffcreditsunfinished_Call6C:
	dc.b	nAb2, $04, nAb2, nEb2, nAb2, $08, nEb3, $04, nAb2, nF2, nRst, nFs2
	dc.b	nRst, nAb2, nRst, nG2, nRst, nBb2, nEb3, nBb3, nEb3, $02, nEb4, nD4
	dc.b	$04, nA3, nD3, $02, nD4, nCs3, nAb3, nCs4, nCs3, nRst, $20
	smpsReturn

staffcreditsunfinished_Call6D:
	dc.b	smpsNoAttack, nRst, $7F, smpsNoAttack, nRst, $01
	smpsReturn

staffcreditsunfinished_Call6E:
	dc.b	smpsNoAttack, nRst, $58
	smpsSetvoice        $00
	dc.b	nC5, $02, nE5, nG5, nC6, nB5, $04, nG5, nRst, nE5, nA5, nG5
	dc.b	nRst, nE5
	smpsReturn

staffcreditsunfinished_Call6F:
	dc.b	nF5, $04, nE5, nF5, nG5, $0C, nC5, $02, nE5, nG5, nC6, nB5
	dc.b	$04, nG5, nRst, nE5, nA5, nG5, nRst, nE5, nF5, nE5, nD5, nC5
	dc.b	$08, nRst, $2C
	smpsReturn

staffcreditsunfinished_Call70:
	dc.b	smpsNoAttack, nRst, $70
	smpsSetvoice        $00
	dc.b	nD5, $04, nRst, $02, nD5, nE5, nRst, nG5, $04
	smpsReturn

staffcreditsunfinished_Call71:
	dc.b	nRst, $04, nFs5, nRst, nE5, nRst, nE5, nFs5, nD5, $12, nRst, $02
	dc.b	nD5, $04, nRst, $02, nD5, nE5, nRst, nD5, $04, nRst, nD5, nRst
	dc.b	nCs5, $1C, nRst, $08, nD5, $04, nRst, $02, nD5, nE5, nRst, nG5
	dc.b	$04
	smpsReturn

staffcreditsunfinished_Call72:
	dc.b	nRst, $04, nFs5, nRst, nE5, nRst, nE5, nFs5, nD5, $12, nRst, $02
	dc.b	nD5, $04, nRst, $02, nD5, nE5, nRst, nD5, $04, nRst, nD5, nRst
	dc.b	nCs5, $0C, nE5, $07, nRst, $01, nE5, $02, nRst, nE5, $03, nRst
	dc.b	$05, nD5, $08, nRst, $0C
	smpsReturn

staffcreditsunfinished_Call42:
	dc.b	smpsNoAttack, nRst, $04
	smpsSetvoice        $00
	dc.b	nB5, $03, nRst, $01, nB5, $03, nRst, $01, nB5, $03, nRst, $01
	dc.b	nCs6, $08, nB5, $04, nCs6, nRst, nCs6, nRst, nCs6, nE6, $08, nEb6
	dc.b	nB6, nCs7, $04, nB6, $0C, nCs7, $04, nB6, $18, nAb6, $04, nA6
	dc.b	nB6, $03, nRst, $01
	smpsReturn

staffcreditsunfinished_Call43:
	dc.b	smpsNoAttack, nRst, $60, nF5, $04, nC5, nG5, nF5, nRst, $10
	smpsReturn

staffcreditsunfinished_Call44:
	dc.b	nRst, $04, nC5, $18, nF5, $04, nD5, $1C, nRst, $04, nC5, $0C
	dc.b	nRst, $04, nC5, $10, nF5, $04, nC5, $1C
	smpsReturn

staffcreditsunfinished_Call45:
	dc.b	nRst, $04, nC5, $18, nRst, $38, nE6, $04, nA5, $08, nBb5, $0C
	dc.b	nF5, $08, nBb5, nG5, $04
	smpsReturn

staffcreditsunfinished_Call46:
	dc.b	nRst, $04, nG5, nG5, $08, $04, nRst, nG5, $08, nF5, nRst, $04
	dc.b	nF5, $10, nRst, $04, nG5, $08, nRst, $04, nG5, $10, nRst, $04
	dc.b	nF5, $08, nRst, $04, nF5, $08, nD6, $04, nBb5, $08
	smpsReturn

staffcreditsunfinished_Call47:
	dc.b	nG5, $08, nRst, $04, nC6, $08, nF6, $04, nC6, nE6, $0C, nRst
	dc.b	$04, nG6, $10, nRst, $04, nG5, $10, nC6, $08, nB5, $04, nG5
	dc.b	nRst, nG5, nD6, $05, nRst, $03, nC6, $05, nRst, $03, nG5, $05
	dc.b	nRst, $03
	smpsReturn

staffcreditsunfinished_Call48:
	dc.b	nB5, $08, nC6, $02, nRst, nA5, $14, nRst, $20, nA6, $10, nC7
	dc.b	$08, nB6, $04, nG6, $10, nRst, $08, nE6, $04, nF6, nG6
	smpsReturn

staffcreditsunfinished_Call49:
	dc.b	nF6, $08, nE6, nD6, nC6, $04, nD6, $08, nE6, $04, nRst, nE6
	dc.b	$08, nC6, $04, nD6, nE6, nA6, $10, nC7, $08, nB6, $04, nG6
	dc.b	$10, nRst, $08, nE6, $04, nF6, nG6
	smpsReturn

staffcreditsunfinished_Call4A:
	dc.b	nFs6, $10, nA6, $04, nG6, nFs6, nG6, $20, nRst, $04, nG6, $08
	dc.b	nC7, nB6, nG6, $04, nC7, $08, nB6, nG6, nE6, $04, nF6, nG6
	smpsReturn

staffcreditsunfinished_Call4B:
	dc.b	nG6, $08, nA6, $04, nG6, $08, nC6, $04, nE6, nD6, $1A, nRst
	dc.b	$0A, nA6, $04, nB6, nC7, nB6, nRst, nG6, nRst, nC7, $18, nRst
	dc.b	$0C
	smpsReturn

staffcreditsunfinished_Call4C:
	dc.b	smpsNoAttack, nRst, $7F, smpsNoAttack, nRst, $01
	smpsReturn

staffcreditsunfinished_Call4D:
	dc.b	smpsNoAttack, nRst, $40
	smpsSetvoice        $00
	dc.b	nC6, $02, nC5, nC5, $03, nRst, $05, nC5, $14, nF5, $02, nF5
	dc.b	nF5, $03, nRst, $05, nF5, $14
	smpsReturn

staffcreditsunfinished_Call4E:
	dc.b	nEb5, $02, nEb5, nEb5, $03, nRst, $05, nEb5, $14, nCs5, $02, nCs5
	dc.b	nCs5, $03, nRst, $05, nCs5, $14, nRst, $04, nC6, $02, nRst, nG5
	dc.b	nRst, $06, nC6, $02, nRst, nG5, nRst, $06, nG5, $02, nRst, $06
	dc.b	nBb5, $02, nRst, nF5, nRst, $06, nBb5, $02, nRst, nF5, nRst, $06
	dc.b	nF5, $02, nRst
	smpsReturn

staffcreditsunfinished_Call4F:
	dc.b	smpsNoAttack, $04, nBb5, $02, nRst, nEb5, nRst, $06, nBb5, $02, nRst, nEb5
	dc.b	nRst, $06, nEb5, $02, nRst, $06, nC5, $02, nRst, $06, nEb5, $02
	dc.b	nRst, $06, nF5, $02, nRst, $06, nEb5, $02, nRst, $06, nC6, $02
	dc.b	nRst, nG5, nRst, $06, nC6, $02, nRst, nG5, nRst, $06, nG5, $02
	dc.b	nRst, $06, nBb5, $02, nRst, nF5, nRst, $06, nBb5, $02, nRst, nF5
	dc.b	nRst, $06, nF5, $02, nRst
	smpsReturn

staffcreditsunfinished_Call50:
	dc.b	smpsNoAttack, $04, nBb5, $02, nRst, nEb5, nRst, $06, nBb5, $02, nRst, nEb5
	dc.b	nRst, $06, nEb5, $02, nRst, $06, nF5, $02, nRst, $06, nEb5, $02
	dc.b	nRst, $06, nF5, $02, nRst, $06, nG5, $02, nRst, nC6, nF5, nG5
	dc.b	nC5, nRst, $10, nC5, $02, nF5, nG5, nBb5, nC6, nF6, nG6, nBb5
	dc.b	nRst, $10, nBb4, $02, nF5, nBb5, nF6
	smpsReturn

staffcreditsunfinished_Call51:
	dc.b	nEb6, $02, nBb5, nAb5, nEb5, nRst, $10, nAb4, $02, nEb5, nAb5, nEb6
	dc.b	nRst, $04, nAb5, $02, nRst, $06, nF5, $02, nRst, $06, nF5, $02
	dc.b	nRst, $06, nG5, $02, nRst, nC6, nF5, nG5, nC5, nRst, $10, nC5
	dc.b	$02, nF5, nG5, nBb5, nC6, nF6, nG6, nBb5, nRst, $10, nBb4, $02
	dc.b	nF5, nBb5, nF6
	smpsReturn

staffcreditsunfinished_Call52:
	dc.b	nEb6, $02, nBb5, nAb5, nEb5, nRst, $10, nAb4, $02, nEb5, nAb5, nEb6
	dc.b	nRst, $04, nFs5, $02, nRst, $06, nAb5, $02, nRst, $06, nG5, $02
	dc.b	nRst, $06, nFs5, $02, nRst, $06, nBb5, $04, nBb5, nRst, nA5, nA5
	dc.b	nAb5, nAb5, nRst, $08, nD5, $04, nA4, nC5, nG4, $0C
	smpsReturn

staffcreditsunfinished_Call53:
	dc.b	nA4, $0C, nF4, nG4, $08, nD4, $0C, nF4, nG4, nC4, $1A, nRst
	dc.b	$0A, nD5, $04, nA4, nC5, nG4, $0C
	smpsReturn

staffcreditsunfinished_Call54:
	dc.b	nA4, $0C, nF4, nG4, $08, nD4, $0C, nF4, nG4, nC5, $1C, nRst
	dc.b	$20
	smpsReturn

staffcreditsunfinished_Call55:
	dc.b	smpsNoAttack, nRst, $68
	smpsSetvoice        $00
	dc.b	nG6, $02, nRst, $0E, nE6, $02, nRst, $06
	smpsReturn

staffcreditsunfinished_Call56:
	dc.b	smpsNoAttack, nRst, $04, nF6, $02, nRst, $06, nG6, $0E, nRst, nG6, $02
	dc.b	nRst, $0E, nE6, $02, nRst, $0A, nF6, $02, nRst, $06, nE6, $0E
	dc.b	nRst, $0A, nC6, $02, nRst, nC6, $06, nRst, $02, nC6, $03, nRst
	dc.b	nC6, nRst, nC6, nRst, $01
	smpsReturn

staffcreditsunfinished_Call57:
	dc.b	smpsNoAttack, nRst, $04, nB5, $02, nRst, nB5, $06, nRst, $02, nB5, $03
	dc.b	nRst, nB5, nRst, nB5, nRst, $05, nC6, $02, nRst, nC6, $06, nRst
	dc.b	$02, nC6, $03, nRst, nC6, nRst, nC6, nRst, $05, nC6, $02, nRst
	dc.b	nBb5, $06, nRst, $02, nBb5, $03, nRst, nBb5, nRst, nBb5, nRst, $05
	dc.b	nC6, $02, nRst, nC6, $08, nRst, $04, nC6, $02, nRst, $06, nB5
	dc.b	$04
	smpsReturn

staffcreditsunfinished_Call58:
	dc.b	nRst, $04, nA5, $02, nRst, nB5, $06, nRst, $02, nB5, $03, nRst
	dc.b	nB5, nRst, nB5, nRst, $05, nC6, $02, nRst, nC6, $08, nRst, $04
	dc.b	nC6, $02, nRst, $06, nB5, $04, nRst, nA5, $02, nRst, nB5, $06
	dc.b	nRst, $0A, nD6, $02, nE6, nF6, nG6, nRst, $20
	smpsReturn

staffcreditsunfinished_Call33:
	dc.b	smpsNoAttack, nRst, $04
	smpsSetvoice        $00
	dc.b	nE6, $03, nRst, $01, nE6, $03, nRst, $01, nE6, $03, nRst, $01
	dc.b	nE6, $08, nRst, $0C, nE6, $04, nRst, nFs6, nAb6, $08, nFs6, nRst
	dc.b	$04, nE6, $0E, nRst, $02, nE6, $0E, nRst, $02, nE6, $08, nEb6
	dc.b	$14
	smpsReturn

staffcreditsunfinished_Call34:
	dc.b	nB6, $04, nCs6, $14, nE6, $0C, nEb6, $1E, nRst, $02, nE6, nRst
	dc.b	nE6, nRst, nEb6, nRst, $16, nF5, $04, nC5, $08, nF5, nRst
	smpsReturn

staffcreditsunfinished_Call35:
	dc.b	smpsNoAttack, $08, nF5, $04, nG5, nBb5, nA5, nG5, nRst, nG5, $08, nA5
	dc.b	$04, nF5, $14, $10, nE5, nRst, $08, nG5, $04, nF5, nRst, $10
	smpsReturn

staffcreditsunfinished_Call36:
	dc.b	smpsNoAttack, nRst, $08, nF5, $04, nG5, nBb5, nA5, nG5, nF5, nG5, $08
	dc.b	nF5, $04, nC6, $20, nF6, $08, nRst, $04, nC6, $08, nD6, $0C
	dc.b	nE6, $08, nF6, nE6, $04
	smpsReturn

staffcreditsunfinished_Call37:
	dc.b	nRst, $04, nE6, nD6, $08, nC6, nRst, nA5, $0C, nD6, $14, $0C
	dc.b	nC6, $14, nBb5, $0C, nC6, $08, nRst, $04, nF6, $08
	smpsReturn

staffcreditsunfinished_Call38:
	dc.b	nC6, $0C, nF6, $08, nA6, $04, nRst, nG6, $10, nC7, $14, nRst
	dc.b	$40
	smpsReturn

staffcreditsunfinished_Call39:
	dc.b	smpsNoAttack, nRst, $7F, smpsNoAttack, nRst, $01
	smpsReturn

staffcreditsunfinished_Call3A:
	dc.b	smpsNoAttack, nRst, $40, nRst
	smpsReturn

staffcreditsunfinished_Call3B:
	dc.b	smpsNoAttack, $60
	smpsSetvoice        $00
	dc.b	nA4, $04, nRst, nA4, nRst, $08, nA4, $0C
	smpsReturn

staffcreditsunfinished_Call3C:
	dc.b	nF5, $04, nD5, nA4, nC5, $08, nA4, $0C, nBb4, $04, nRst, nBb4
	dc.b	nRst, $08, nBb4, $04, nRst, nBb4, $08, nA4, $04, nG5, nF5, nE5
	dc.b	nD5, nC5, nA4, nA4, nRst, nA4, nRst, $08, nA4, $0C
	smpsReturn

staffcreditsunfinished_Call3D:
	dc.b	nF5, $04, nD5, nA4, nC5, $08, nA4, $0C, nBb4, $04, nRst, nBb4
	dc.b	nRst, $08, nBb4, $04, nRst, nBb4, $08, nA4, $04, nG5, nF5, nE5
	dc.b	nF5, nG5, nA5, nRst, $08, nF5, $04, nF5, nRst, nF5, nRst, $08
	smpsReturn

staffcreditsunfinished_Call3E:
	dc.b	nF5, $04, nRst, nF5, nRst, nE5, nF5, nE5, nD5, nRst, $08, nF5
	dc.b	$04, nF5, nRst, nF5, nRst, $08, nF5, $04, nRst, nF5, nRst, nE5
	dc.b	nF5, nE5, nD5, nRst, nF5, nRst, nF5, nE5, nF5, nE5, nRst
	smpsReturn

staffcreditsunfinished_Call3F:
	dc.b	nF5, $04, nRst, nF5, nRst, nG5, nF5, nE5, nC5, nRst, $60
	smpsReturn

staffcreditsunfinished_Call40:
	dc.b	smpsNoAttack, nRst, $3C
	smpsSetvoice        $00
	dc.b	nG5, $04, nRst, nFs5, nRst, nE5, $1C, nRst, $18
	smpsReturn

staffcreditsunfinished_Call41:
	dc.b	smpsNoAttack, nRst, $3C, nG5, $04, nRst, nFs5, nRst, nE5, $0A, nRst, $0E
	dc.b	nG5, $03, nRst, $05, nFs5, $08, nRst, $0C
	smpsReturn

staffcreditsunfinished_Call20:
	dc.b	smpsNoAttack, nRst, $04
	smpsSetvoice        $00
	dc.b	nA6, $03, nRst, $01, nA6, $03, nRst, $01, nAb6, $03, nRst, $71
	smpsReturn

staffcreditsunfinished_Call21:
	dc.b	nRst, $08, nB6, $04, nA6, $08, nAb6, nFs6, $10, nCs6, $08, nCs7
	dc.b	nB6, $06, nRst, $02, nB6, nRst, nB6, nRst, nB6, nRst, $32
	smpsReturn

staffcreditsunfinished_Call22:
	dc.b	smpsNoAttack, nRst, $7F, smpsNoAttack, nRst, $01
	smpsReturn

staffcreditsunfinished_Call23:
	dc.b	smpsNoAttack, nRst, $24
	smpsSetvoice        $00
	dc.b	nG5, $02, nA5, nB5, nC6, nA5, nB5, nC6, nD6, nB5, nC6, nD6
	dc.b	nE6, nD6, nE6, nF6, nG6, nRst, $3C
	smpsReturn

staffcreditsunfinished_Call24:
	dc.b	smpsNoAttack, nRst, $1C
	smpsSetvoice        $00
	dc.b	nG5, $06, nA5, $02, nB5, nC6, nA5, nB5, nC6, nD6, nB5, nC6
	dc.b	nD6, nE6, nD6, nE6, nF6, nG6, nRst, $40
	smpsReturn

staffcreditsunfinished_Call25:
	dc.b	smpsNoAttack, nRst, $5C, nG5, $06, nA5, $02, nB5, nC6, nA5, nB5, nC6
	dc.b	nD6, nB5, nC6, nD6, nE6, nD6, nE6, nF6, nG6
	smpsReturn

staffcreditsunfinished_Call26:
	dc.b	nRst, $20, nC4, $10, nG3, nE4, nB3, nA3, nC4
	smpsReturn

staffcreditsunfinished_Call27:
	dc.b	nA3, $06, nE4, $02, nA3, $06, nB3, $02, nRst, $06, nB3, $02
	dc.b	nG3, $08, nC4, $10, nG3, nE4, nB3, nA3, nC4
	smpsReturn

staffcreditsunfinished_Call28:
	dc.b	nA3, $06, nE4, $02, nA3, $06, nB3, $02, nRst, $06, nB3, $02
	dc.b	nG3, $08, nA3, $06, nRst, $02, nA3, $08, nB3, $06, nRst, $02
	dc.b	nC4, $08, nE4, $10, nRst, $06, nB3, $02, $08, nF4, $06, nRst
	dc.b	$02, nF4, $08, nE4, $06, nRst, $02, nD4, $08
	smpsReturn

staffcreditsunfinished_Call29:
	dc.b	nC4, $10, nA3, $06, nB3, $02, nC4, $08, nD4, $03, nRst, $05
	dc.b	nD4, $08, nE4, $03, nRst, $05, nE4, $08, nFs4, $03, nRst, $05
	dc.b	nFs4, $06, $02, nRst, $06, nA4, $02, nFs4, $08, nG4, $03, nRst
	dc.b	$05, nG4, $08, nF4, $03, nRst, $05, nF4, $08
	smpsReturn

staffcreditsunfinished_Call2A:
	dc.b	nE4, $03, nRst, $05, nE4, $06, nD4, $02, nRst, $06, nD4, $02
	dc.b	$08, nRst, $60
	smpsReturn

staffcreditsunfinished_Call2B:
	dc.b	smpsNoAttack, nRst, $44
	smpsSetvoice        $00
	dc.b	nC5, $04, nEb5, nF5, nG5, nBb5, nRst, nC6, nRst, nG5, nBb5, $14
	dc.b	nRst, $04
	smpsReturn

staffcreditsunfinished_Call2C:
	dc.b	smpsNoAttack, nRst, $04, nC5, nEb5, nF5, nG5, nBb5, nRst, nC6, nRst, nEb6
	dc.b	nD6, $10, nBb5, $08, nRst, $04, nC5, nEb5, nF5, nG5, nBb5, nRst
	dc.b	nC6, nRst, nG5, nBb5, $16, nRst, $02
	smpsReturn

staffcreditsunfinished_Call2D:
	dc.b	nG5, $08, nC5, $04, nEb5, $08, nRst, $04, nF5, $08, nRst, $04
	dc.b	nFs5, $08, nRst, $04, nG5, nRst, nBb5, nRst, $44
	smpsReturn

staffcreditsunfinished_Call2E:
	dc.b	smpsNoAttack, nRst, $48, nD6, $04, nF6, nG6, nC6, $0C, nRst, $20
	smpsReturn

staffcreditsunfinished_Call2F:
	dc.b	smpsNoAttack, nRst, $48, nD6, $04, nF6, nG6, nD6, nF6, nG6, nRst, $20
	smpsReturn

staffcreditsunfinished_Call30:
	dc.b	smpsNoAttack, nRst, $70
	smpsSetvoice        $00
	dc.b	nD3, $05, nRst, $01, nD3, $02, nA2, $04, nD3
	smpsReturn

staffcreditsunfinished_Call31:
	dc.b	smpsNoAttack, $01, nRst, $03, nD3, $04, nA2, $02, nA3, nD3, nD4, nG4
	dc.b	nC3, nC4, nG3, nG2, nRst, nG3, nG2, nC3, nRst, nC3, nC4, nG2
	dc.b	nG3, nC3, nC4, nB2, $05, nRst, $01, nB2, $02, nFs2, $04, nB2
	dc.b	$05, nRst, $03, nB2, $04, nFs2, $02, nFs3, nB2, nB3, nE4, nA4
	dc.b	nA3, nE3, nA3, nRst, nE3, nE2, nA2, nRst, nA2, nA3, nCs3, nD3
	dc.b	nEb3, nE3, nD3, $05, nRst, $01, nD3, $02, nA2, $04, nD3
	smpsReturn

staffcreditsunfinished_Call32:
	dc.b	smpsNoAttack, $01, nRst, $03, nD3, $04, nA2, $02, nA3, nD3, nD4, nG4
	dc.b	nC3, nC4, nG3, nG2, nRst, nG3, nG2, nC3, nRst, nC3, nC4, nG2
	dc.b	nG3, nC3, nC4, nB2, $05, nRst, $01, nB2, $02, nFs2, $04, nB2
	dc.b	$05, nRst, $03, nB2, $04, nFs2, $02, nFs3, nB2, nB3, nE4, nA4
	dc.b	nA3, nE3, nA3, nRst, nE3, nE2, nA2, nE3, nG3, nA3, nE4, nA4
	dc.b	nD3, $08, nRst, $0C
	smpsReturn

staffcreditsunfinished_Call1C:
	dc.b	smpsNoAttack, nRst, $7F, smpsNoAttack, nRst, $01
	smpsReturn

staffcreditsunfinished_Call1D:
	dc.b	smpsNoAttack, nRst, $4E
	smpsSetvoice        $00
	dc.b	nB3, $02, nRst, $30
	smpsReturn

staffcreditsunfinished_Call1E:
	dc.b	smpsNoAttack, nRst, $60
	smpsSetvoice        $00
	dc.b	nG5, $04, nE5, nRst, nC5, nF5, nE5, nRst, nC5
	smpsReturn

staffcreditsunfinished_Call1F:
	dc.b	nA4, $04, nC5, nA4, nD5, $0C, nRst, $08, nG5, $04, nE5, nRst
	dc.b	nA4, nF5, nE5, nRst, nC5, nA4, nC5, nB4, nG4, $08, nRst, $2C
	smpsReturn

staffcreditsunfinished_Call9D:
	dc.b	smpsNoAttack, nRst, $08
	smpsPSGvoice        $00
	dc.b	nE6, $03, nRst, $01, nE6, $03, nRst, $01, nE6, $03, nRst, $01
	dc.b	nE6, $08, nRst, $0C, nE6, $04, nRst, nFs6, nAb6, $08, nFs6, nB6
	dc.b	nCs7, $04, nB6, $0C, nCs7, $04, nB6, $18, nAb6, $04, nA6
	smpsReturn

staffcreditsunfinished_Call9E:
	dc.b	nB6, $03, nRst, $01, nB6, $04, nCs6, $14, nE6, $0C, nEb6, $1E
	dc.b	nRst, $02, nE6, nRst, nE6, nRst, nEb6, nRst, $22, nF6, $04, nC6
	dc.b	nG6
	smpsReturn

staffcreditsunfinished_Call9F:
	dc.b	nF6, $20, nRst, $04, nG5, $08, nA5, $04, nF5, $14, $10, nE5
	dc.b	$04, nRst, $18, nF5, $08, nRst
	smpsReturn

staffcreditsunfinished_CallA0:
	dc.b	smpsNoAttack, $0C, nF5, $04, nG5, nBb5, nA5, nG5, nRst, $10, nC6, $20
	dc.b	nF6, $08, nRst, $04, nC6, $08, nD6, $0C, nE6, $08, nF6
	smpsReturn

staffcreditsunfinished_CallA1:
	dc.b	nE6, $04, nRst, nE6, nD6, $08, nC6, nRst, nA5, $0C, nD6, $14
	dc.b	$0C, nC6, $14, nBb5, $0C, nC6, $08, nRst, $04, nF6
	smpsReturn

staffcreditsunfinished_CallA2:
	dc.b	smpsNoAttack, $04, nC6, $0C, nF6, $08, nA6, $04, nRst, nG6, $10, nC7
	dc.b	$14, nRst, $3C
	smpsReturn

staffcreditsunfinished_CallA3:
	dc.b	smpsNoAttack, nRst, $7F, smpsNoAttack, nRst, $01
	smpsReturn

staffcreditsunfinished_CallA4:
	dc.b	smpsNoAttack, nRst, $20
	smpsPSGvoice        $00
	dc.b	nC4, $03, nRst, nC4, $02, nE4, $06, nF4, $02, nG4, $06, nRst
	dc.b	$02, nC5, $08, nB4, $0E, nG4, $05, nRst, nE4, $08, nA4, $0E
	dc.b	nE4, $12
	smpsReturn

staffcreditsunfinished_CallA5:
	dc.b	smpsNoAttack, $14, nRst, $0C, nC4, $03, nRst, nC4, $02, nE4, $06, nF4
	dc.b	$02, nG4, $06, nRst, $02, nC5, $08, nB4, $0E, nG4, $05, nRst
	dc.b	nE4, $08, nA4, $0E, nE5, $12
	smpsReturn

staffcreditsunfinished_CallA6:
	dc.b	smpsNoAttack, $10, nRst, $08, nC5, $06, nD5, $02, nE5, $04, nRst, nE5
	dc.b	$08, nD5, $04, nRst, nC5, $08, nB4, $14, nRst, $04, nE4, $08
	dc.b	nA4, $04, nRst, nA4, $08, nG4, $04, nRst, nF4, $08
	smpsReturn

staffcreditsunfinished_CallA7:
	dc.b	nG4, $10, nE4, $04, nRst, nC4, $08, nD4, $04, nRst, nE4, $08
	dc.b	nD4, $04, nRst, nE4, $08, nD4, $06, nRst, $02, nE4, $06, nFs4
	dc.b	$02, nRst, $06, nFs4, $02, nA4, $08, nG4, $1E, nRst, $02
	smpsReturn

staffcreditsunfinished_CallA8:
	dc.b	nG4, $03, nA4, nB4, $02, nA4, $03, nB4, nC5, $02, nB4, $03
	dc.b	nC5, nD5, $02, nE5, $03, nF5, nG5, $02, nRst, $20, nC5, $02
	dc.b	nC6, nC6, $03, nRst, $05, nG5, nRst, $07, nBb5, $08, nC6, $02
	dc.b	nC6, nC6, $03, nRst, $05, nEb6, $14
	smpsReturn

staffcreditsunfinished_CallA9:
	dc.b	nC6, $02, nC6, nC6, $03, nRst, $05, nG5, $0C, nBb5, $08, nC6
	dc.b	$02, nC6, nC6, $03, nRst, $05, nBb5, $14, nRst, $04, nG6, $02
	dc.b	nRst, nD6, nRst, $06, nG6, $02, nRst, nD6, nRst, $06, nC6, $02
	dc.b	nRst, $06, nF6, $02, nRst, nC6, nRst, $06, nF6, $02, nRst, nC6
	dc.b	nRst, $06, nBb5, $02, nRst
	smpsReturn

staffcreditsunfinished_CallAA:
	dc.b	smpsNoAttack, $04, nEb6, $02, nRst, nBb5, nRst, $06, nEb6, $02, nRst, nBb5
	dc.b	nRst, $06, nAb5, $02, nRst, $06, nG5, $02, nRst, $06, nAb5, $02
	dc.b	nRst, $06, nBb5, $02, nRst, $06, nD6, $02, nRst, $06, nG6, $02
	dc.b	nRst, nD6, nRst, $06, nG6, $02, nRst, nD6, nRst, $06, nC6, $02
	dc.b	nRst, $06, nF6, $02, nRst, nC6, nRst, $06, nF6, $02, nRst, nC6
	dc.b	nRst, $06, nBb5, $02, nRst
	smpsReturn

staffcreditsunfinished_CallAB:
	dc.b	smpsNoAttack, $04, nEb6, $02, nRst, nBb5, nRst, $06, nEb6, $02, nRst, nBb5
	dc.b	nRst, $06, nAb5, $02, nRst, $06, nAb5, $02, nRst, $06, nAb5, $02
	dc.b	nRst, $06, nC6, $02, nRst, $06, nD6, $02, nRst, $42
	smpsReturn

staffcreditsunfinished_CallAC:
	dc.b	smpsNoAttack, nRst, $24, nC6, $02, nRst, $06, nAb5, $02, nRst, $06, nBb5
	dc.b	$02, nRst, $06, nD6, $02, nRst, $42
	smpsReturn

staffcreditsunfinished_CallAD:
	dc.b	smpsNoAttack, nRst, $24, nEb6, $02, nRst, $06, nCs6, $02, nRst, $06, nB5
	dc.b	$02, nRst, $06, nD6, $02, nRst, $06, nEb6, $04, nEb6, nRst, nD6
	dc.b	nD6, nCs6, nCs6, nRst, $08, nD6, $04, nA5, nC6, nG5, $0C
	smpsReturn

staffcreditsunfinished_CallAE:
	dc.b	nA5, $0C, nF5, nG5, $08, nD5, $0C, nF5, nG5, nC5, $1A, nRst
	dc.b	$0A, nD6, $04, nA5, nC6, nG5, $0C
	smpsReturn

staffcreditsunfinished_CallAF:
	dc.b	nA5, $0C, nF5, nG5, $08, nD5, $0C, nF5, nG5, nC6, $1C, nRst
	dc.b	$20
	smpsReturn

staffcreditsunfinished_CallB0:
	dc.b	smpsNoAttack, nRst, $70
	smpsPSGvoice        $00
	dc.b	nD5, $08, nG5
	smpsReturn

staffcreditsunfinished_CallB1:
	dc.b	nD5, $04, nA5, $08, nD5, $07, nRst, $01, nD5, $04, nC6, $07
	dc.b	nRst, $01, nC6, nRst, $03, nB5, $01, nRst, $03, nA5, $01, nRst
	dc.b	$03, nG5, $01, nRst, $03, nD5, $08, nG5, nA5, nD6, $02, nRst
	dc.b	nE5, nRst, nA3, nRst, nA4, nRst, nCs4, nRst, nCs5, nRst, nE4, nRst
	dc.b	nE5, nRst, nFs5, nG5, nAb5, nA5, nD5, $08, nG5
	smpsReturn

staffcreditsunfinished_CallB2:
	dc.b	nD5, $04, nA5, $08, nD5, $07, nRst, $01, nD5, $04, nC6, $07
	dc.b	nRst, $01, nC6, nRst, $03, nB5, $01, nRst, $03, nA5, $01, nRst
	dc.b	$03, nG5, $01, nRst, $03, nD5, $08, nG5, nA5, nD6, $02, nRst
	dc.b	nE5, nRst, nA3, nRst, nA4, nRst, nCs4, nRst, nA5, nRst, nE5, nA5
	dc.b	nFs5, nG5, nAb5, nA5, nFs5, $04, nRst, $10
	smpsReturn

staffcreditsunfinished_Call8F:
	dc.b	smpsNoAttack, nRst, $48
	smpsPSGvoice        $00
	dc.b	nE6, $0E, nRst, $02, nE6, $0E, nRst, $02, nE6, $08, nEb6, $10
	smpsReturn

staffcreditsunfinished_Call90:
	dc.b	smpsNoAttack, $04, nRst, $08, nB6, $04, nA6, $08, nAb6, nFs6, $10, nCs6
	dc.b	$08, nCs7, nB6, $06, nRst, $02, nB6, nRst, nB6, nRst, nB6, nRst
	dc.b	$2E
	smpsReturn

staffcreditsunfinished_Call91:
	dc.b	smpsNoAttack, nRst, $20, nRst, $50, nF6, $04, nC6, nG6, nA6
	smpsReturn

staffcreditsunfinished_Call92:
	dc.b	smpsNoAttack, $20, nRst, $10, nG6, $08, nA6, $04, nBb6, nC7, $14, nRst
	dc.b	$04, nA6, $08, nRst, $04, nF6, nD6, nRst, nF6, nD6, nRst, nG6
	smpsReturn

staffcreditsunfinished_Call93:
	dc.b	nRst, $04, nG6, nC6, nG6, nRst, nG6, nC6, nRst, $08, nF6, $04
	dc.b	nD6, nRst, nF6, nD6, nRst, nF6, nRst, nG6, nD6, nG6, nRst, nG6
	dc.b	nC6, nRst, $08, nF6, $04, nD6, nRst, nF6, nRst, nF6, nD6
	smpsReturn

staffcreditsunfinished_Call94:
	dc.b	nRst, $04, nG6, nE6, nF6, nRst, nA6, nRst, nG6, $08, nE6, $04
	dc.b	nF6, nG6, nRst, nC7, $0C, nRst, $40
	smpsReturn

staffcreditsunfinished_Call95:
	dc.b	nG5, $08, nA5, $02, nRst, nF5, $14, nRst, $20, nF5, $10, nA5
	dc.b	$08, nG5, $04, nE5, $10, nRst, $14
	smpsReturn

staffcreditsunfinished_Call96:
	dc.b	smpsNoAttack, nRst, $40, nF5, $10, nA5, $08, nG5, $04, nE5, $10, nRst
	dc.b	$14
	smpsReturn

staffcreditsunfinished_Call97:
	dc.b	smpsNoAttack, nRst, $40, nE5, $08, nE5, nD5, nC5, $04, nE5, $08, nD5
	dc.b	nC5, nG4, $04, nB4, nD5
	smpsReturn

staffcreditsunfinished_Call98:
	dc.b	nC5, $08, nB4, $04, nA4, $08, $04, nG4, nB4, $1A, nRst, $0A
	dc.b	nF5, $04, nF5, nA5, nG5, nRst, nD5, nRst, nE5, $18, nRst, $0C
	smpsReturn

staffcreditsunfinished_Call99:
	dc.b	smpsNoAttack, nRst, $7F, smpsNoAttack, nRst, $01
	smpsReturn

staffcreditsunfinished_Call9A:
	dc.b	smpsNoAttack, nRst, $54
	smpsPSGvoice        $00
	dc.b	nE5, $04, nF5, $02, nRst, nG5, $04, nRst, nE5, nF5, $02, nRst
	dc.b	nG5, $08, nE5, $04, nF5, $02, nRst, nG5, $04
	smpsReturn

staffcreditsunfinished_Call9B:
	dc.b	nA5, $04, nG5, nE5, nC5, nRst, nE5, nF5, $02, nRst, nG5, $04
	dc.b	nRst, nE5, nF5, $02, nRst, nG5, $08, nE5, $04, nF5, $02, nRst
	dc.b	nG5, $04, nA5, $02, nRst, nA5, $04, nG5, nE5, nC5, nRst, nE5
	dc.b	$08, nF5, nE5, $04, nC5, nRst, nE5, nRst, nD5
	smpsReturn

staffcreditsunfinished_Call9C:
	dc.b	smpsNoAttack, $0C, nRst, $08, nC5, $04, nD5, $02, nRst, nE5, nRst, nF5
	dc.b	$08, nE5, $04, nC5, nRst, nA5, nRst, nG5, $14, nRst, $04, nE5
	dc.b	nF5, $02, nRst, nG5, $08, nRst, $1C
	smpsReturn

staffcreditsunfinished_Call73:
	smpsPSGvoice        fTone_02
	dc.b	nCs0, $08, nCs0, nCs0, nCs0, nCs0, nCs0, nCs0, nCs0, nCs0, nCs0, nCs0
	dc.b	nCs0, nCs0, nCs0, nCs0, nCs0
	smpsReturn

staffcreditsunfinished_Call74:
	smpsPSGvoice        fTone_02
	dc.b	nCs0, $08, nCs0, nCs0, nCs0, nCs0, nCs0, nCs0, nCs0, nCs0, $04, nCs0
	dc.b	nCs0, $12, nRst, $06, nCs0, $08, nCs0, nCs0, $04, nCs0, nCs0, $08
	smpsReturn

staffcreditsunfinished_Call75:
	smpsPSGvoice        fTone_02
	dc.b	nCs0, $08, nCs0, nCs0, $04, nCs0, nCs0, $08, nCs0, nCs0, nCs0, $04
	dc.b	nCs0, nCs0, $08, nCs0, nCs0, nCs0, $04, nCs0, nCs0, $08, nCs0, nCs0
	dc.b	nCs0, $04, nCs0, nCs0, $08
	smpsReturn

staffcreditsunfinished_Call76:
	smpsPSGvoice        fTone_02
	dc.b	nCs0, $08, nCs0, nCs0, $04, nCs0, nCs0, $08, nCs0, nCs0, nCs0, $04
	dc.b	nCs0, nCs0, $08, nCs0, nCs0, nCs0, $04, nCs0, nCs0, $08, $04, nCs0
	dc.b	nCs0, $08, nCs0, nCs0
	smpsReturn

staffcreditsunfinished_Call77:
	smpsPSGvoice        fTone_02
	dc.b	nCs0, $04, nCs0, nCs0, $08, nCs0, nCs0, nCs0, $04, nCs0, nCs0, $08
	dc.b	nCs0, nCs0, nCs0, $04, nCs0, nCs0, $08, nCs0, nCs0, nCs0, $04, nCs0
	dc.b	nCs0, $08, nCs0, nCs0
	smpsReturn

staffcreditsunfinished_Call78:
	smpsPSGvoice        fTone_02
	dc.b	nCs0, $04, nCs0, nCs0, $08, nCs0, nCs0, nCs0, nCs0, nCs0, nCs0, nCs0
	dc.b	$04, $08, nCs0, nCs0, $04, nCs0, nRst, nCs0, $08, nCs0, nCs0, $04
	dc.b	nCs0, nCs0, $08
	smpsReturn

staffcreditsunfinished_Call79:
	smpsPSGvoice        fTone_02
	dc.b	nCs0, $08, nCs0, nCs0, nCs0, nCs0, nCs0, nCs0, nCs0, nCs0, $04, $08
	dc.b	$04, $08, nCs0, nCs0, $04, $08, $04, $08, nCs0
	smpsReturn

staffcreditsunfinished_Call7A:
	smpsPSGvoice        fTone_02
	dc.b	nCs0, $04, $08, $04, $08, nCs0, nCs0, $04, $08, $04, $08, nCs0
	dc.b	nCs0, $0C, $04, $08, nCs0, nCs0, $04, $08, $04, $08, nCs0
	smpsReturn

staffcreditsunfinished_Call7B:
	smpsPSGvoice        fTone_02
	dc.b	nCs0, $0C, $04, $08, nCs0, nCs0, nCs0, nCs0, $04, nCs0, nCs0, $08
	dc.b	nCs0, nCs0, nCs0, nCs0, nCs0, nCs0, nCs0, nCs0
	smpsReturn

staffcreditsunfinished_Call7C:
	smpsPSGvoice        fTone_02
	dc.b	nCs0, $08, nCs0, nCs0, nCs0, nCs0, nCs0, nCs0, nCs0, nCs0, nCs0, nCs0
	dc.b	nCs0, nCs0, nCs0, nCs0, $04, nCs0, nCs0, nRst
	smpsReturn

staffcreditsunfinished_Call7D:
	smpsPSGvoice        fTone_02
	dc.b	nCs0, $08, $06, $02, $03, nCs0, nCs0, $02, $08, nCs0, nCs0, $06
	dc.b	$02, $08, $06, $02, $08, $06, $02, $08, $06, $02, $08, $06
	dc.b	$02, $08, $06, $02
	smpsReturn

staffcreditsunfinished_Call7E:
	smpsPSGvoice        fTone_02
	dc.b	nCs0, $08, $06, $02, $08, $06, $02, $08, $06, $02, $08, $06
	dc.b	$02, $08, $06, $02, $08, $06, $02, $08, $06, $02, $08, $06
	dc.b	$02
	smpsReturn

staffcreditsunfinished_Call7F:
	smpsPSGvoice        fTone_02
	dc.b	nCs0, $06, $02, $08, nCs0, nCs0, nCs0, $06, $02, $06, $02, $08
	dc.b	nCs0, nCs0, $06, $02, $06, $02, $08, nCs0, nCs0, $06, $02, $06
	dc.b	$02, $08, nCs0
	smpsReturn

staffcreditsunfinished_Call80:
	smpsPSGvoice        fTone_02
	dc.b	nCs0, $06, $02, $06, $02, $08, nCs0, nCs0, $06, $02, $08, $06
	dc.b	$02, $08, $06, $02, $08, $06, $02, $08, $06, $02, $08, $06
	dc.b	$02, $08
	smpsReturn

staffcreditsunfinished_Call81:
	smpsPSGvoice        fTone_02
	dc.b	nCs0, $06, $02, $08, nCs0, nCs0, nCs0, nCs0, $06, $02, $03, nCs0
	dc.b	nCs0, $02, $08, $04, nCs0, nCs0, $02, $04, $02, nRst, $04, nCs0
	dc.b	nCs0, nCs0, $02, $06, $04, $02, $04, $02, nRst, $04, nCs0, nCs0
	dc.b	nCs0, $02, nCs0
	smpsReturn

staffcreditsunfinished_Call82:
	dc.b	smpsNoAttack, $04
	smpsPSGvoice        fTone_02
	dc.b	nCs0, nCs0, $02, $04, $02, $04, nCs0, nCs0, nCs0, $02, $06, $04
	dc.b	$02, $04, $02, $08, $04, nCs0, nCs0, $02, nCs0, nCs0, $04, $02
	dc.b	$06, nRst, $08, nCs0, $06, $02, nCs0, nCs0, $06, nCs0, nCs0, $02
	dc.b	$06, $04, nCs0, nCs0, $02
	smpsReturn

staffcreditsunfinished_Call83:
	smpsPSGvoice        fTone_02
	dc.b	nCs0, $04, nCs0, nCs0, $02, $06, $08, $06, $02, nCs0, nCs0, $06
	dc.b	nCs0, nCs0, $02, $06, $04, nCs0, nCs0, $02, $04, nCs0, nCs0, $02
	dc.b	$06, $08, $06, $02, nCs0, nCs0, $06, nCs0, nCs0, $02, $06, $04
	dc.b	nCs0, nCs0, $02
	smpsReturn

staffcreditsunfinished_Call84:
	smpsPSGvoice        fTone_02
	dc.b	nCs0, $04, nCs0, nCs0, $02, $06, $08, $06, $02, nCs0, nCs0, $06
	dc.b	nCs0, nCs0, $02, $06, $04, nCs0, nCs0, $02, $04, nCs0, nCs0, $02
	dc.b	$06, $08, $06, $02, nCs0, nCs0, nCs0, $04, $02, $06, $08, $06
	dc.b	$02
	smpsReturn

staffcreditsunfinished_Call85:
	smpsPSGvoice        fTone_02
	dc.b	nCs0, $02, nCs0, nCs0, $04, $02, $06, $08, $06, $02, nCs0, nCs0
	dc.b	$06, nCs0, nCs0, $02, $06, $04, nCs0, nCs0, $02, $04, nCs0, nCs0
	dc.b	$02, $06, nRst, $10, nCs0, $02, nCs0, nCs0, $04, $02, $06, nRst
	dc.b	$10
	smpsReturn

staffcreditsunfinished_Call86:
	smpsPSGvoice        fTone_02
	dc.b	nCs0, $02, nCs0, nCs0, $04, $02, $06, nRst, $18, nCs0, $06, $02
	dc.b	$06, $04, nCs0, nCs0, $02, $08, $04, $02, nCs0, nCs0, $04, nCs0
	dc.b	nCs0, $02, nCs0, nCs0, $04, $08, $04, $08, $04, $08
	smpsReturn

staffcreditsunfinished_Call87:
	dc.b	smpsNoAttack, $04
	smpsPSGvoice        fTone_02
	dc.b	nCs0, nCs0, $08, $04, nCs0, nCs0, $08, nCs0, nCs0, $04, $08, $04
	dc.b	$0C, $04, $08, $04, nCs0, nCs0, $08, nCs0, nCs0, $04, $08, $04
	dc.b	$08
	smpsReturn

staffcreditsunfinished_Call88:
	dc.b	smpsNoAttack, $04
	smpsPSGvoice        fTone_02
	dc.b	nCs0, nCs0, $08, $04, nCs0, nCs0, $08, nCs0, nCs0, $04, $08, $04
	dc.b	$0C, $04, $08, $04, nCs0, nCs0, $0C, $04, $08, nCs0, nCs0, $04
	dc.b	nCs0
	smpsReturn

staffcreditsunfinished_Call89:
	dc.b	smpsNoAttack, $04
	smpsPSGvoice        fTone_02
	dc.b	nCs0, nCs0, $08, nCs0, nCs0, $0C, $04, $08, nCs0, nCs0, $04, nCs0
	dc.b	nCs0, $08, nCs0, nCs0, $04, $10, $06, $02, $08, $06, $02, $04
	smpsReturn

staffcreditsunfinished_Call8A:
	dc.b	smpsNoAttack, $04
	smpsPSGvoice        fTone_02
	dc.b	nCs0, $06, $02, $08, $06, $02, $08, $06, $02, $08, $06, $02
	dc.b	$08, $06, $02, $08, $06, $02, $08, $06, $02, $08, $06, $02
	dc.b	$04
	smpsReturn

staffcreditsunfinished_Call8B:
	dc.b	smpsNoAttack, $04
	smpsPSGvoice        fTone_02
	dc.b	nCs0, $06, $02, $08, $06, $02, $08, $06, $02, $08, $06, $02
	dc.b	$08, $06, $02, $08, $06, $02, $10, nRst, $04, nCs0, nCs0, $02
	dc.b	$06, $02, nCs0
	smpsReturn

staffcreditsunfinished_Call8C:
	dc.b	smpsNoAttack, $04
	smpsPSGvoice        fTone_02
	dc.b	nCs0, $02, $04, $02, nCs0, nCs0, nCs0, $04, $02, $06, $02, $06
	dc.b	$02, nCs0, nCs0, $04, nCs0, nCs0, nCs0, $02, $06, $02, $06, $02
	dc.b	$04, $02, nCs0, nCs0, nCs0, $04, $02, $06, $02, $06, $02, nCs0
	dc.b	nCs0, $04, nCs0, nCs0, nCs0, $02, $06, $02, nCs0
	smpsReturn

staffcreditsunfinished_Call8D:
	dc.b	smpsNoAttack, $04
	smpsPSGvoice        fTone_02
	dc.b	nCs0, $02, $04, $02, nCs0, nCs0, nCs0, $04, $02, $06, $02, $06
	dc.b	$02, nCs0, nCs0, $04, nCs0, nCs0, nCs0, $02, $06, $02, $06, $02
	dc.b	$04, $02, nCs0, nCs0, nCs0, $04, $02, $06, $02, $06, $02, nCs0
	dc.b	nCs0, $04, $10, nRst, $04
	smpsReturn

staffcreditsunfinished_Call8E:
	dc.b	smpsNoAttack, nRst, $7F, smpsNoAttack, nRst, $01
	smpsReturn

staffcreditsunfinished_Call00:
	dc.b	dKick, $08, dSnare, $06, $02, dKick, $04, dKick, dSnare, dKick, $08, $04
	dc.b	dSnare, $06, $02, dSnare, dSnare, nRst, dSnare, dSnare, $04, $02, dSnare, dKick
	dc.b	$04, dKick, dSnare, dKick, $08, $02, dKick, dSnare, $04, dKick, $08, $04
	dc.b	dSnare, dKick, $08, $04, dSnare, $08
	smpsReturn

staffcreditsunfinished_Call01:
	dc.b	dKick, $04, dKick, dSnare, dKick, $08, $02, dKick, dSnare, $04, dKick, $08
	dc.b	$04, dSnare, dKick, $08, $04, dSnare, dKick, $08, $04, dKick, dKick, dSnare
	dc.b	$02, $04, dSnare, dSnare, $02, dSnare, dSnare, dKick, $08, dSnare, dKick, $04
	dc.b	dKick, dSnare, $08
	smpsReturn

staffcreditsunfinished_Call02:
	dc.b	dKick, $08, dSnare, dKick, $04, dKick, dSnare, $08, dKick, dSnare, dKick, $04
	dc.b	dKick, dSnare, $08, dKick, dSnare, dKick, $04, dKick, dSnare, dSnare, dKick, $08
	dc.b	dSnare, dKick, $04, dKick, dSnare, $08
	smpsReturn

staffcreditsunfinished_Call03:
	dc.b	dKick, $08, dSnare, dKick, $04, dKick, dSnare, $08, dKick, dSnare, dKick, $04
	dc.b	dKick, dSnare, $08, dKick, dSnare, dKick, $04, dSnare, dSnare, dSnare, dKick, $08
	dc.b	dSnare, dKick, $04, dKick, dSnare, dKick
	smpsReturn

staffcreditsunfinished_Call04:
	dc.b	nRst, $04, dKick, dSnare, $08, dKick, $04, dKick, dSnare, $08, dKick, dSnare
	dc.b	dKick, $04, dKick, dSnare, $08, dKick, dSnare, dKick, $04, dKick, dSnare, dSnare
	dc.b	dKick, $08, dSnare, dKick, $04, dKick, dSnare, $08
	smpsReturn

staffcreditsunfinished_Call05:
	dc.b	dKick, $08, dSnare, dKick, $04, dKick, dSnare, dKick, $08, dSnare, $04, dSnare
	dc.b	dSnare, dSnare, dKick, dSnare, dSnare, dKick, $0C, $04, dSnare, $0C, $04, dKick
	dc.b	dSnare, $08, dKick, $04, dSnare, dKick, dSnare, $08
	smpsReturn

staffcreditsunfinished_Call06:
	dc.b	dKick, $08, dSnare, dKick, $04, dKick, dSnare, $08, dKick, dSnare, dKick, $04
	dc.b	dSnare, dSnare, dSnare, dKick, $08, dSnare, $0C, dKick, $04, dSnare, $08, dKick
	dc.b	dSnare, $04, dKick, $08, $04, dSnare, $08
	smpsReturn

staffcreditsunfinished_Call07:
	dc.b	dKick, $08, dSnare, $0C, dKick, $04, dSnare, dKick, $08, $04, dSnare, dKick
	dc.b	$08, $04, dSnare, $08, dKick, dSnare, $0C, dKick, $04, dSnare, dKick, $08
	dc.b	$04, dSnare, dKick, $08, $04, dSnare, $08
	smpsReturn

staffcreditsunfinished_Call08:
	dc.b	dKick, $08, dSnare, $0C, dKick, $04, dSnare, dKick, $08, dSnare, $04, dSnare
	dc.b	dSnare, $08, dKick, $04, dSnare, $08, dKick, dSnare, dKick, $04, dKick, dSnare
	dc.b	$08, dKick, dSnare, dKick, $04, dKick, dSnare, $08
	smpsReturn

staffcreditsunfinished_Call09:
	dc.b	dKick, $08, dSnare, dKick, $04, dKick, dSnare, $08, dKick, dSnare, dKick, $04
	dc.b	dSnare, dSnare, dSnare, dKick, dSnare, $08, dKick, dKick, $04, dSnare, dKick, $08
	dc.b	$04, dSnare, $08, dKick, $04, dSnare, dSnare, dSnare
	smpsReturn

staffcreditsunfinished_Call0A:
	dc.b	dSnare, $03, dSnare, dSnare, $02, $08, $06, dKick, $0A, $08, dSnare, dKick
	dc.b	dSnare, dKick, dSnare, dKick, $06, dSnare, $02, $08, dKick, dSnare, dKick, dSnare
	smpsReturn

staffcreditsunfinished_Call0B:
	dc.b	dKick, $08, dSnare, dKick, $06, dSnare, $02, $06, $02, dKick, $08, dSnare
	dc.b	dKick, dSnare, dKick, dSnare, dKick, $06, dSnare, $02, $08, dKick, dSnare, dKick
	dc.b	dSnare
	smpsReturn

staffcreditsunfinished_Call0C:
	dc.b	dKick, $08, dSnare, $06, $02, dKick, $03, dSnare, $05, $06, $02, dKick
	dc.b	$08, dSnare, dKick, dSnare, dKick, dSnare, dKick, $06, dSnare, $02, $08, dKick
	dc.b	dSnare, dKick, dSnare
	smpsReturn

staffcreditsunfinished_Call0D:
	dc.b	dKick, $08, dSnare, $06, $02, dKick, $03, dSnare, $05, $06, $02, $03
	dc.b	dSnare, dSnare, $02, $08, $06, dKick, $0A, $08, dSnare, $06, $02, dKick
	dc.b	$04, dKick, dSnare, dSnare, $02, dSnare, dKick, $08, dSnare, $06, $02, dKick
	dc.b	$04, dKick, dSnare, $02, $04, $02
	smpsReturn

staffcreditsunfinished_Call0E:
	dc.b	dKick, $08, dSnare, $06, dSnare, dKick, $04, dSnare, dSnare, $02, dSnare, dKick
	dc.b	$04, dSnare, $02, dSnare, dSnare, $04, dKick, dSnare, dKick, $02, dKick, dSnare
	dc.b	dSnare, dSnare, dSnare, dKick, $08, dSnare, $06, $02, dKick, $04, dKick, dSnare
	dc.b	$08, dKick, dSnare, $06, dSnare, dKick, $04, dSnare, $08
	smpsReturn

staffcreditsunfinished_Call0F:
	dc.b	dKick, $08, dSnare, $06, dSnare, dKick, $04, dSnare, $08, dKick, $04, dKick
	dc.b	dSnare, $06, $02, dKick, $04, dKick, dSnare, $02, dSnare, dSnare, $04, dKick
	dc.b	$08, dSnare, $06, dSnare, dKick, $04, dSnare, $08, dKick, dSnare, $06, dSnare
	dc.b	dKick, $04, dSnare, $08
	smpsReturn

staffcreditsunfinished_Call10:
	dc.b	dKick, $08, dSnare, $06, dSnare, dKick, $04, dSnare, $08, dKick, $04, dKick
	dc.b	dSnare, $06, $02, dKick, $04, dKick, dSnare, $02, dSnare, dSnare, $04, dKick
	dc.b	$08, dSnare, $06, dSnare, dKick, $04, dSnare, $08, dKick, dSnare, dSnare, $04
	dc.b	dKick, dSnare, $08
	smpsReturn

staffcreditsunfinished_Call11:
	dc.b	dKick, $08, dSnare, $06, dSnare, dKick, $04, dSnare, dKick, dSnare, dKick, dKick
	dc.b	dSnare, dKick, dKick, dSnare, $02, dSnare, dSnare, dSnare, dKick, $04, dSnare, dSnare
	dc.b	dKick, $02, dKick, dSnare, $04, dKick, dSnare, $02, dSnare, dSnare, dSnare, dKick
	dc.b	$08, dSnare, $04, dKick, $08, $04, dSnare, $08
	smpsReturn

staffcreditsunfinished_Call12:
	dc.b	nRst, $04, dKick, dSnare, $08, dKick, $04, dKick, dSnare, $08, dKick, dSnare
	dc.b	$0C, dKick, $04, dSnare, dKick, $08, $04, dSnare, $08, dKick, $04, dKick
	dc.b	dSnare, $08, dKick, dSnare, $04, dKick, $08, $04, dSnare, $08
	smpsReturn

staffcreditsunfinished_Call13:
	dc.b	nRst, $04, dKick, dSnare, $08, dKick, $04, dKick, dSnare, $08, dKick, dSnare
	dc.b	$0C, dKick, $04, dSnare, dKick, $08, $04, dSnare, $08, dKick, $04, dKick
	dc.b	dSnare, $08, dKick, dSnare, $04, dKick, $08, $04, dSnare, dSnare
	smpsReturn

staffcreditsunfinished_Call14:
	dc.b	dKick, $08, dSnare, $04, dKick, $08, $04, dSnare, dSnare, dKick, $08, dSnare
	dc.b	$04, dKick, $08, $04, dSnare, dSnare, dKick, $08, dSnare, $04, dKick, $08
	dc.b	dSnare, $04, dSnare, dSnare, dKick, dKick, dSnare, dSnare, $08, dKick, $04, dSnare
	dc.b	$08
	smpsReturn

staffcreditsunfinished_Call15:
	dc.b	nRst, $04, dKick, dSnare, $08, dKick, $04, dKick, dSnare, $08, dKick, $04
	dc.b	dKick, dSnare, dSnare, $08, dKick, $04, dSnare, dKick, dSnare, $08, $0C, dKick
	dc.b	$04, dSnare, dSnare, $02, dSnare, dKick, $08, dSnare, $06, $02, dKick, $04
	dc.b	dKick, dSnare, $06, $02
	smpsReturn

staffcreditsunfinished_Call16:
	dc.b	dKick, $04, dKick, dSnare, dKick, $08, $04, dSnare, dSnare, $02, dSnare, dKick
	dc.b	$08, dSnare, $06, $02, dKick, $04, dKick, dSnare, $06, $02, dKick, $04
	dc.b	dSnare, dSnare, dKick, dSnare, $02, dSnare, dKick, dSnare, dSnare, $04, dSnare, dKick
	dc.b	$08, dSnare, $06, $02, dKick, $04, dKick, dSnare, $08
	smpsReturn

staffcreditsunfinished_Call17:
	dc.b	dKick, $08, dSnare, $06, $02, dKick, $04, dKick, dSnare, $08, dKick, dSnare
	dc.b	$06, $02, dKick, $04, dKick, dSnare, $08, dKick, dSnare, $06, $02, dKick
	dc.b	$04, dKick, dSnare, $08, dKick, dSnare, $06, $02, dKick, $04, dSnare, dSnare
	dc.b	dKick
	smpsReturn

staffcreditsunfinished_Call18:
	dc.b	dKick, $08, dSnare, $06, $02, dKick, $04, dKick, dSnare, $06, $02, dKick
	dc.b	$08, dSnare, $06, $02, dKick, $04, dSnare, dSnare, dKick, $08, dSnare, $06
	dc.b	dSnare, dSnare, $04, dKick, $02, dSnare, dSnare, $04, $02, dSnare, dSnare, $04
	dc.b	dSnare, dSnare, $02, dSnare, dSnare, dSnare, dKick, $04, dSnare, dKick, dSnare
	smpsReturn

staffcreditsunfinished_Call19:
	dc.b	dKick, $04, dSnare, dKick, dSnare, dKick, dSnare, dKick, dSnare, dKick, dSnare, dKick
	dc.b	$02, dSnare, dSnare, $04, dKick, dSnare, dKick, dSnare, dKick, dSnare, dKick, dSnare
	dc.b	dKick, dSnare, dKick, $02, dSnare, dSnare, $04, dKick, dSnare, dKick, $02, dSnare
	dc.b	dSnare, dSnare, dKick, $04, dSnare, dKick, dSnare
	smpsReturn

staffcreditsunfinished_Call1A:
	dc.b	dKick, $04, dSnare, dKick, dSnare, dKick, dSnare, dKick, dSnare, dKick, dSnare, dKick
	dc.b	$02, dSnare, dSnare, $04, dKick, dSnare, dKick, dSnare, dKick, dSnare, dKick, $02
	dc.b	dSnare, dSnare, $04, dSnare, dKick, dSnare, dKick, dSnare, $02, dKick, $06, dSnare
	dc.b	$02, dSnare, dKick, $0E, nRst, $06
	smpsReturn

staffcreditsunfinished_Call1B:
	dc.b	nRst, $7F, nRst, $01
	smpsReturn

staffcreditsunfinished_Voices:
;	Voice $00
;	$10
;	$09, $00, $00, $00, 	$1F, $1F, $5F, $5F, 	$12, $0E, $0A, $0A
;	$00, $04, $04, $03, 	$2F, $2F, $2F, $2F, 	$25, $30, $13, $00
	smpsVcAlgorithm     $00
	smpsVcFeedback      $02
	smpsVcUnusedBits    $00
	smpsVcDetune        $00, $00, $00, $00
	smpsVcCoarseFreq    $00, $00, $00, $09
	smpsVcRateScale     $01, $01, $00, $00
	smpsVcAttackRate    $1F, $1F, $1F, $1F
	smpsVcAmpMod        $00, $00, $00, $00
	smpsVcDecayRate1    $0A, $0A, $0E, $12
	smpsVcDecayRate2    $03, $04, $04, $00
	smpsVcDecayLevel    $02, $02, $02, $02
	smpsVcReleaseRate   $0F, $0F, $0F, $0F
	smpsVcTotalLevel    $00, $13, $30, $25

